<mxfile host="app.diagrams.net" modified="2022-09-14T00:30:46.600Z" agent="5.0 (X11; Linux x86_64) AppleWebKit/537.36 (KHTML, like Gecko) Chrome/103.0.0.0 Safari/537.36" etag="5AXqvuV6FA07CjvTV5hM" version="20.2.7" type="github">
  <diagram id="C5RBs43oDa-KdzZeNtuy" name="Page-1">
    <mxGraphModel dx="1422" dy="800" grid="1" gridSize="10" guides="1" tooltips="1" connect="1" arrows="1" fold="1" page="1" pageScale="1" pageWidth="827" pageHeight="1169" math="0" shadow="0">
      <root>
        <mxCell id="WIyWlLk6GJQsqaUBKTNV-0" />
        <mxCell id="WIyWlLk6GJQsqaUBKTNV-1" parent="WIyWlLk6GJQsqaUBKTNV-0" />
        <mxCell id="GBISdUFNZ5l1FWsdLvzd-16" value="" style="group" parent="WIyWlLk6GJQsqaUBKTNV-1" vertex="1" connectable="0">
          <mxGeometry x="50" y="440" width="130" height="80" as="geometry" />
        </mxCell>
        <mxCell id="GBISdUFNZ5l1FWsdLvzd-0" value="&lt;p style=&quot;line-height: 0.9;&quot;&gt;&lt;font style=&quot;line-height: 1.2;&quot;&gt;&lt;font style=&quot;font-size: 10px;&quot;&gt;60h&lt;/font&gt;&lt;br&gt;&lt;span style=&quot;font-weight: bold;&quot;&gt;&lt;font style=&quot;font-size: 18px;&quot;&gt;EXA703&lt;/font&gt;&lt;/span&gt;&lt;/font&gt;&lt;br&gt;&lt;span data-whi-docs=&quot;[[:p &amp;quot;ÁLGEBRA LINEAR I E&amp;quot;]]&quot;&gt;&lt;/span&gt;&amp;nbsp;&lt;font style=&quot;font-size: 10px;&quot;&gt;ÁLGEBRA LINEAR I E&lt;/font&gt;&lt;b&gt;&lt;font style=&quot;font-size: 15px;&quot;&gt;&lt;br&gt;&lt;/font&gt;&lt;/b&gt;&lt;/p&gt;" style="rounded=1;whiteSpace=wrap;html=1;fillStyle=auto;gradientColor=none;strokeColor=default;shadow=0;glass=0;sketch=0;" parent="GBISdUFNZ5l1FWsdLvzd-16" vertex="1">
          <mxGeometry y="10" width="120" height="60" as="geometry" />
        </mxCell>
        <mxCell id="GBISdUFNZ5l1FWsdLvzd-2" value="&lt;font style=&quot;font-size: 17px;&quot;&gt;5&lt;/font&gt;" style="ellipse;whiteSpace=wrap;html=1;fontSize=10;" parent="GBISdUFNZ5l1FWsdLvzd-16" vertex="1">
          <mxGeometry x="100" width="30" height="30" as="geometry" />
        </mxCell>
        <mxCell id="GBISdUFNZ5l1FWsdLvzd-339" value="" style="ellipse;whiteSpace=wrap;html=1;pointerEvents=0;fontFamily=Helvetica;fontSize=37;fillColor=#33FFFF;strokeColor=default;" parent="GBISdUFNZ5l1FWsdLvzd-16" vertex="1">
          <mxGeometry y="10" width="20" height="20" as="geometry" />
        </mxCell>
        <mxCell id="GBISdUFNZ5l1FWsdLvzd-18" value="" style="group" parent="WIyWlLk6GJQsqaUBKTNV-1" vertex="1" connectable="0">
          <mxGeometry x="670" y="440" width="130" height="70" as="geometry" />
        </mxCell>
        <mxCell id="GBISdUFNZ5l1FWsdLvzd-7" value="30h&lt;br&gt;&lt;span style=&quot;font-size: 16px;&quot;&gt;&lt;b&gt;TEC497&lt;/b&gt;&lt;/span&gt;&lt;br&gt;&lt;div&gt;&lt;div&gt;INTRODUÇÃO A&lt;/div&gt;&lt;div&gt;ELETRÔNICA&lt;/div&gt;&lt;/div&gt;" style="rounded=1;whiteSpace=wrap;html=1;shadow=0;glass=0;sketch=0;fillStyle=auto;fontSize=10;strokeColor=default;gradientColor=none;" parent="GBISdUFNZ5l1FWsdLvzd-18" vertex="1">
          <mxGeometry y="10" width="120" height="60" as="geometry" />
        </mxCell>
        <mxCell id="GBISdUFNZ5l1FWsdLvzd-8" value="&lt;font style=&quot;font-size: 17px;&quot;&gt;11&lt;/font&gt;" style="ellipse;whiteSpace=wrap;html=1;fontSize=10;" parent="GBISdUFNZ5l1FWsdLvzd-18" vertex="1">
          <mxGeometry x="100" width="30" height="30" as="geometry" />
        </mxCell>
        <mxCell id="GBISdUFNZ5l1FWsdLvzd-307" value="" style="ellipse;whiteSpace=wrap;html=1;pointerEvents=0;fontFamily=Helvetica;fontSize=37;fillColor=#FF3333;strokeColor=default;" parent="GBISdUFNZ5l1FWsdLvzd-18" vertex="1">
          <mxGeometry y="10" width="20" height="20" as="geometry" />
        </mxCell>
        <mxCell id="GBISdUFNZ5l1FWsdLvzd-19" value="" style="group" parent="WIyWlLk6GJQsqaUBKTNV-1" vertex="1" connectable="0">
          <mxGeometry x="830" y="440" width="126" height="70" as="geometry" />
        </mxCell>
        <mxCell id="GBISdUFNZ5l1FWsdLvzd-11" value="30h&lt;br&gt;&lt;span style=&quot;font-size: 16px;&quot;&gt;&lt;b&gt;TEC503&lt;/b&gt;&lt;/span&gt;&lt;div&gt;&lt;div&gt;PROD. DE TEXTOS&lt;/div&gt;&lt;div&gt;TÉC. E ACADEM.&lt;/div&gt;&lt;/div&gt;" style="rounded=1;whiteSpace=wrap;html=1;shadow=0;glass=0;sketch=0;fillStyle=auto;fontSize=10;strokeColor=default;gradientColor=none;" parent="GBISdUFNZ5l1FWsdLvzd-19" vertex="1">
          <mxGeometry y="10" width="120" height="60" as="geometry" />
        </mxCell>
        <mxCell id="GBISdUFNZ5l1FWsdLvzd-12" value="&lt;font style=&quot;font-size: 17px;&quot;&gt;12&lt;/font&gt;" style="ellipse;whiteSpace=wrap;html=1;fontSize=10;" parent="GBISdUFNZ5l1FWsdLvzd-19" vertex="1">
          <mxGeometry x="100" width="30" height="30" as="geometry" />
        </mxCell>
        <mxCell id="GBISdUFNZ5l1FWsdLvzd-308" value="" style="ellipse;whiteSpace=wrap;html=1;pointerEvents=0;fontFamily=Helvetica;fontSize=37;fillColor=#FF3333;strokeColor=default;" parent="GBISdUFNZ5l1FWsdLvzd-19" vertex="1">
          <mxGeometry y="10" width="20" height="20" as="geometry" />
        </mxCell>
        <mxCell id="GBISdUFNZ5l1FWsdLvzd-28" value="" style="group" parent="WIyWlLk6GJQsqaUBKTNV-1" vertex="1" connectable="0">
          <mxGeometry x="530" y="440" width="130" height="70" as="geometry" />
        </mxCell>
        <mxCell id="GBISdUFNZ5l1FWsdLvzd-9" value="60h&lt;br&gt;&lt;span style=&quot;font-size: 16px;&quot;&gt;&lt;b&gt;EXA702&lt;/b&gt;&lt;/span&gt;&lt;br&gt;&lt;div&gt;&lt;div&gt;ÁLGEBRA VET E GEOM&lt;/div&gt;&lt;div&gt;&lt;span style=&quot;background-color: initial;&quot;&gt;ANALÍTICA&lt;/span&gt;&lt;/div&gt;&lt;/div&gt;" style="rounded=1;whiteSpace=wrap;html=1;shadow=0;glass=0;sketch=0;fillStyle=auto;fontSize=10;strokeColor=default;gradientColor=none;" parent="GBISdUFNZ5l1FWsdLvzd-28" vertex="1">
          <mxGeometry y="10" width="120" height="60" as="geometry" />
        </mxCell>
        <mxCell id="GBISdUFNZ5l1FWsdLvzd-6" value="&lt;font style=&quot;font-size: 17px;&quot;&gt;6&lt;/font&gt;" style="ellipse;whiteSpace=wrap;html=1;fontSize=10;" parent="GBISdUFNZ5l1FWsdLvzd-28" vertex="1">
          <mxGeometry x="100" width="30" height="30" as="geometry" />
        </mxCell>
        <mxCell id="GBISdUFNZ5l1FWsdLvzd-320" value="" style="ellipse;whiteSpace=wrap;html=1;pointerEvents=0;fontFamily=Helvetica;fontSize=37;fillColor=#FFFF33;strokeColor=default;" parent="GBISdUFNZ5l1FWsdLvzd-28" vertex="1">
          <mxGeometry y="10" width="20" height="20" as="geometry" />
        </mxCell>
        <mxCell id="GBISdUFNZ5l1FWsdLvzd-29" value="" style="group" parent="WIyWlLk6GJQsqaUBKTNV-1" vertex="1" connectable="0">
          <mxGeometry x="320" y="440" width="130" height="70" as="geometry" />
        </mxCell>
        <mxCell id="GBISdUFNZ5l1FWsdLvzd-5" value="60h&lt;br&gt;&lt;span style=&quot;font-size: 16px;&quot;&gt;&lt;b&gt;EXA543&lt;/b&gt;&lt;/span&gt;&lt;div&gt;&lt;div&gt;INTRODUÇÃO AO&lt;/div&gt;&lt;div&gt;&lt;span style=&quot;background-color: initial;&quot;&gt;CÁLCULO&lt;/span&gt;&lt;/div&gt;&lt;/div&gt;" style="rounded=1;whiteSpace=wrap;html=1;shadow=0;glass=0;sketch=0;fillStyle=auto;fontSize=10;strokeColor=default;gradientColor=none;" parent="GBISdUFNZ5l1FWsdLvzd-29" vertex="1">
          <mxGeometry y="10" width="120" height="60" as="geometry" />
        </mxCell>
        <mxCell id="GBISdUFNZ5l1FWsdLvzd-22" value="&lt;font style=&quot;font-size: 17px;&quot;&gt;15&lt;/font&gt;" style="ellipse;whiteSpace=wrap;html=1;fontSize=10;" parent="GBISdUFNZ5l1FWsdLvzd-29" vertex="1">
          <mxGeometry x="100" width="30" height="30" as="geometry" />
        </mxCell>
        <mxCell id="GBISdUFNZ5l1FWsdLvzd-299" value="" style="ellipse;whiteSpace=wrap;html=1;pointerEvents=0;fontFamily=Helvetica;fontSize=37;fillColor=#FF3333;strokeColor=default;align=center;" parent="GBISdUFNZ5l1FWsdLvzd-29" vertex="1">
          <mxGeometry y="10" width="20" height="20" as="geometry" />
        </mxCell>
        <mxCell id="GBISdUFNZ5l1FWsdLvzd-30" value="" style="group" parent="WIyWlLk6GJQsqaUBKTNV-1" vertex="1" connectable="0">
          <mxGeometry x="1196" y="440" width="130" height="80" as="geometry" />
        </mxCell>
        <mxCell id="GBISdUFNZ5l1FWsdLvzd-31" value="&lt;p style=&quot;line-height: 0.9;&quot;&gt;&lt;font style=&quot;line-height: 1.2;&quot;&gt;&lt;font style=&quot;font-size: 10px;&quot;&gt;30h&lt;/font&gt;&lt;br&gt;&lt;/font&gt;&lt;span style=&quot;font-size: 18px;&quot;&gt;&lt;b&gt;EXA854&lt;/b&gt;&lt;/span&gt;&lt;br&gt;&lt;span data-whi-docs=&quot;[[:p &amp;quot;ÁLGEBRA LINEAR I E&amp;quot;]]&quot;&gt;&lt;/span&gt;&amp;nbsp;&lt;font style=&quot;font-size: 10px;&quot;&gt;MI - ALGORITMOS&lt;/font&gt;&lt;b&gt;&lt;font style=&quot;font-size: 15px;&quot;&gt;&lt;br&gt;&lt;/font&gt;&lt;/b&gt;&lt;/p&gt;" style="rounded=1;whiteSpace=wrap;html=1;fillStyle=auto;gradientColor=none;strokeColor=default;shadow=0;glass=0;sketch=0;" parent="GBISdUFNZ5l1FWsdLvzd-30" vertex="1">
          <mxGeometry y="10" width="120" height="60" as="geometry" />
        </mxCell>
        <mxCell id="GBISdUFNZ5l1FWsdLvzd-32" value="&lt;font style=&quot;font-size: 17px;&quot;&gt;13&lt;/font&gt;" style="ellipse;whiteSpace=wrap;html=1;fontSize=10;" parent="GBISdUFNZ5l1FWsdLvzd-30" vertex="1">
          <mxGeometry x="100" width="30" height="30" as="geometry" />
        </mxCell>
        <mxCell id="GBISdUFNZ5l1FWsdLvzd-303" value="" style="ellipse;whiteSpace=wrap;html=1;pointerEvents=0;fontFamily=Helvetica;fontSize=37;fillColor=#FF3333;strokeColor=default;" parent="GBISdUFNZ5l1FWsdLvzd-30" vertex="1">
          <mxGeometry y="10" width="20" height="20" as="geometry" />
        </mxCell>
        <mxCell id="GBISdUFNZ5l1FWsdLvzd-33" value="" style="group" parent="WIyWlLk6GJQsqaUBKTNV-1" vertex="1" connectable="0">
          <mxGeometry x="571" y="245" width="130" height="70" as="geometry" />
        </mxCell>
        <mxCell id="GBISdUFNZ5l1FWsdLvzd-34" value="60h&lt;br&gt;&lt;span style=&quot;font-size: 16px;&quot;&gt;&lt;b&gt;EXA829&lt;/b&gt;&lt;/span&gt;&lt;br&gt;&lt;div&gt;&lt;div&gt;TÓP. DE FORM.&lt;/div&gt;&lt;div&gt;&lt;span style=&quot;background-color: initial;&quot;&gt;HUMANÍSTICA&lt;/span&gt;&lt;/div&gt;&lt;/div&gt;" style="rounded=1;whiteSpace=wrap;html=1;shadow=0;glass=0;sketch=0;fillStyle=auto;fontSize=10;strokeColor=default;gradientColor=none;" parent="GBISdUFNZ5l1FWsdLvzd-33" vertex="1">
          <mxGeometry y="10" width="120" height="60" as="geometry" />
        </mxCell>
        <mxCell id="GBISdUFNZ5l1FWsdLvzd-35" value="&lt;font style=&quot;font-size: 17px;&quot;&gt;1&lt;/font&gt;" style="ellipse;whiteSpace=wrap;html=1;fontSize=10;" parent="GBISdUFNZ5l1FWsdLvzd-33" vertex="1">
          <mxGeometry x="100" width="30" height="30" as="geometry" />
        </mxCell>
        <mxCell id="GBISdUFNZ5l1FWsdLvzd-304" value="" style="ellipse;whiteSpace=wrap;html=1;pointerEvents=0;fontFamily=Helvetica;fontSize=37;fillColor=#FF3333;strokeColor=default;" parent="GBISdUFNZ5l1FWsdLvzd-33" vertex="1">
          <mxGeometry y="10" width="20" height="20" as="geometry" />
        </mxCell>
        <mxCell id="GBISdUFNZ5l1FWsdLvzd-36" value="" style="group" parent="WIyWlLk6GJQsqaUBKTNV-1" vertex="1" connectable="0">
          <mxGeometry x="571" y="330" width="126" height="70" as="geometry" />
        </mxCell>
        <mxCell id="GBISdUFNZ5l1FWsdLvzd-37" value="60h&lt;br&gt;&lt;span style=&quot;font-size: 16px;&quot;&gt;&lt;b&gt;EXA890&lt;/b&gt;&lt;/span&gt;&lt;div&gt;&lt;div&gt;ÉTICA EM&lt;/div&gt;&lt;div&gt;COMPUTAÇÃO&lt;/div&gt;&lt;/div&gt;" style="rounded=1;whiteSpace=wrap;html=1;shadow=0;glass=0;sketch=0;fillStyle=auto;fontSize=10;strokeColor=default;gradientColor=none;" parent="GBISdUFNZ5l1FWsdLvzd-36" vertex="1">
          <mxGeometry y="10" width="120" height="60" as="geometry" />
        </mxCell>
        <mxCell id="GBISdUFNZ5l1FWsdLvzd-38" value="&lt;font style=&quot;font-size: 17px;&quot;&gt;1&lt;/font&gt;" style="ellipse;whiteSpace=wrap;html=1;fontSize=10;" parent="GBISdUFNZ5l1FWsdLvzd-36" vertex="1">
          <mxGeometry x="100" width="30" height="30" as="geometry" />
        </mxCell>
        <mxCell id="GBISdUFNZ5l1FWsdLvzd-354" value="" style="ellipse;whiteSpace=wrap;html=1;pointerEvents=0;fontFamily=Helvetica;fontSize=37;fillColor=#9933FF;strokeColor=default;" parent="GBISdUFNZ5l1FWsdLvzd-36" vertex="1">
          <mxGeometry y="10" width="20" height="20" as="geometry" />
        </mxCell>
        <mxCell id="GBISdUFNZ5l1FWsdLvzd-41" value="" style="group" parent="WIyWlLk6GJQsqaUBKTNV-1" vertex="1" connectable="0">
          <mxGeometry x="910" y="330" width="130" height="70" as="geometry" />
        </mxCell>
        <mxCell id="GBISdUFNZ5l1FWsdLvzd-42" value="60h&lt;br&gt;&lt;span style=&quot;font-size: 16px;&quot;&gt;&lt;b&gt;TEC429&lt;/b&gt;&lt;/span&gt;&lt;br&gt;&lt;div&gt;&lt;div&gt;TÓP. DE FORMAÇÃO&lt;/div&gt;&lt;div&gt;COMPLEMENTAR&lt;/div&gt;&lt;/div&gt;" style="rounded=1;whiteSpace=wrap;html=1;shadow=0;glass=0;sketch=0;fillStyle=auto;fontSize=10;strokeColor=default;gradientColor=none;" parent="GBISdUFNZ5l1FWsdLvzd-41" vertex="1">
          <mxGeometry y="10" width="120" height="60" as="geometry" />
        </mxCell>
        <mxCell id="GBISdUFNZ5l1FWsdLvzd-43" value="&lt;font style=&quot;font-size: 17px;&quot;&gt;1&lt;/font&gt;" style="ellipse;whiteSpace=wrap;html=1;fontSize=10;" parent="GBISdUFNZ5l1FWsdLvzd-41" vertex="1">
          <mxGeometry x="100" width="30" height="30" as="geometry" />
        </mxCell>
        <mxCell id="GBISdUFNZ5l1FWsdLvzd-318" value="" style="ellipse;whiteSpace=wrap;html=1;pointerEvents=0;fontFamily=Helvetica;fontSize=37;fillColor=#FF9933;strokeColor=default;" parent="GBISdUFNZ5l1FWsdLvzd-41" vertex="1">
          <mxGeometry y="10" width="20" height="20" as="geometry" />
        </mxCell>
        <mxCell id="GBISdUFNZ5l1FWsdLvzd-44" value="" style="group" parent="WIyWlLk6GJQsqaUBKTNV-1" vertex="1" connectable="0">
          <mxGeometry x="740" y="245" width="130" height="70" as="geometry" />
        </mxCell>
        <mxCell id="GBISdUFNZ5l1FWsdLvzd-45" value="30h&lt;br&gt;&lt;span style=&quot;font-size: 16px;&quot;&gt;&lt;b&gt;EXA861&lt;/b&gt;&lt;/span&gt;&lt;br&gt;&lt;div&gt;&lt;div&gt;INTR. À ENG. DE&lt;/div&gt;&lt;div&gt;COMPUTAÇÃO&lt;/div&gt;&lt;/div&gt;" style="rounded=1;whiteSpace=wrap;html=1;shadow=0;glass=0;sketch=0;fillStyle=auto;fontSize=10;strokeColor=default;gradientColor=none;" parent="GBISdUFNZ5l1FWsdLvzd-44" vertex="1">
          <mxGeometry y="10" width="120" height="60" as="geometry" />
        </mxCell>
        <mxCell id="GBISdUFNZ5l1FWsdLvzd-46" value="&lt;font style=&quot;font-size: 17px;&quot;&gt;1&lt;/font&gt;" style="ellipse;whiteSpace=wrap;html=1;fontSize=10;" parent="GBISdUFNZ5l1FWsdLvzd-44" vertex="1">
          <mxGeometry x="100" width="30" height="30" as="geometry" />
        </mxCell>
        <mxCell id="GBISdUFNZ5l1FWsdLvzd-306" value="" style="ellipse;whiteSpace=wrap;html=1;pointerEvents=0;fontFamily=Helvetica;fontSize=37;fillColor=#FF3333;strokeColor=default;" parent="GBISdUFNZ5l1FWsdLvzd-44" vertex="1">
          <mxGeometry y="10" width="20" height="20" as="geometry" />
        </mxCell>
        <mxCell id="GBISdUFNZ5l1FWsdLvzd-48" value="" style="group" parent="WIyWlLk6GJQsqaUBKTNV-1" vertex="1" connectable="0">
          <mxGeometry x="1244" y="290" width="130" height="80" as="geometry" />
        </mxCell>
        <mxCell id="GBISdUFNZ5l1FWsdLvzd-49" value="&lt;p style=&quot;line-height: 0.9;&quot;&gt;&lt;font style=&quot;line-height: 1.2;&quot;&gt;&lt;font style=&quot;font-size: 10px;&quot;&gt;60h&lt;/font&gt;&lt;br&gt;&lt;/font&gt;&lt;span style=&quot;font-size: 18px;&quot;&gt;&lt;b&gt;EXA859&amp;nbsp; &lt;/b&gt;&lt;/span&gt;&lt;span style=&quot;background-color: initial; font-size: 10px;&quot;&gt;&lt;span style=&quot;background-color: initial;&quot;&gt;EMPREENDEDORISMO&amp;nbsp;&lt;/span&gt;&lt;/span&gt;&lt;span style=&quot;background-color: initial; font-size: 10px;&quot;&gt;I&lt;/span&gt;&lt;/p&gt;" style="rounded=1;whiteSpace=wrap;html=1;fillStyle=auto;gradientColor=none;strokeColor=default;shadow=0;glass=0;sketch=0;" parent="GBISdUFNZ5l1FWsdLvzd-48" vertex="1">
          <mxGeometry y="10" width="120" height="60" as="geometry" />
        </mxCell>
        <mxCell id="GBISdUFNZ5l1FWsdLvzd-50" value="&lt;font style=&quot;font-size: 17px;&quot;&gt;1&lt;/font&gt;" style="ellipse;whiteSpace=wrap;html=1;fontSize=10;" parent="GBISdUFNZ5l1FWsdLvzd-48" vertex="1">
          <mxGeometry x="100" width="30" height="30" as="geometry" />
        </mxCell>
        <mxCell id="GBISdUFNZ5l1FWsdLvzd-344" value="" style="ellipse;whiteSpace=wrap;html=1;pointerEvents=0;fontFamily=Helvetica;fontSize=37;fillColor=#3399FF;strokeColor=default;" parent="GBISdUFNZ5l1FWsdLvzd-48" vertex="1">
          <mxGeometry y="10" width="20" height="20" as="geometry" />
        </mxCell>
        <mxCell id="GBISdUFNZ5l1FWsdLvzd-51" value="" style="group" parent="WIyWlLk6GJQsqaUBKTNV-1" vertex="1" connectable="0">
          <mxGeometry x="1384" y="490" width="130" height="70" as="geometry" />
        </mxCell>
        <mxCell id="GBISdUFNZ5l1FWsdLvzd-52" value="155h&lt;br&gt;&lt;span style=&quot;font-size: 16px;&quot;&gt;&lt;b&gt;TEC519&lt;/b&gt;&lt;/span&gt;&lt;br&gt;&lt;div&gt;&lt;div&gt;TRABALHO DE CONCL.&lt;/div&gt;&lt;div&gt;DE CURSO II&lt;/div&gt;&lt;/div&gt;" style="rounded=1;whiteSpace=wrap;html=1;shadow=0;glass=0;sketch=0;fillStyle=auto;fontSize=10;strokeColor=default;gradientColor=none;" parent="GBISdUFNZ5l1FWsdLvzd-51" vertex="1">
          <mxGeometry y="10" width="120" height="60" as="geometry" />
        </mxCell>
        <mxCell id="GBISdUFNZ5l1FWsdLvzd-53" value="&lt;font style=&quot;font-size: 17px;&quot;&gt;1&lt;/font&gt;" style="ellipse;whiteSpace=wrap;html=1;fontSize=10;" parent="GBISdUFNZ5l1FWsdLvzd-51" vertex="1">
          <mxGeometry x="100" width="30" height="30" as="geometry" />
        </mxCell>
        <mxCell id="GBISdUFNZ5l1FWsdLvzd-362" value="" style="ellipse;whiteSpace=wrap;html=1;pointerEvents=0;fontFamily=Helvetica;fontSize=37;fillColor=#FF99CC;strokeColor=default;" parent="GBISdUFNZ5l1FWsdLvzd-51" vertex="1">
          <mxGeometry y="10" width="20" height="20" as="geometry" />
        </mxCell>
        <mxCell id="GBISdUFNZ5l1FWsdLvzd-54" value="" style="group" parent="WIyWlLk6GJQsqaUBKTNV-1" vertex="1" connectable="0">
          <mxGeometry x="1524" y="290" width="126" height="70" as="geometry" />
        </mxCell>
        <mxCell id="GBISdUFNZ5l1FWsdLvzd-55" value="300h&lt;br&gt;&lt;span style=&quot;font-size: 16px;&quot;&gt;&lt;b&gt;EXA828&lt;/b&gt;&lt;/span&gt;&lt;br&gt;&lt;div&gt;ESTÁGIO&lt;br&gt;&lt;/div&gt;" style="rounded=1;whiteSpace=wrap;html=1;shadow=0;glass=0;sketch=0;fillStyle=auto;fontSize=10;strokeColor=default;gradientColor=none;" parent="GBISdUFNZ5l1FWsdLvzd-54" vertex="1">
          <mxGeometry y="10" width="120" height="60" as="geometry" />
        </mxCell>
        <mxCell id="GBISdUFNZ5l1FWsdLvzd-56" value="&lt;font style=&quot;font-size: 17px;&quot;&gt;1&lt;/font&gt;" style="ellipse;whiteSpace=wrap;html=1;fontSize=10;" parent="GBISdUFNZ5l1FWsdLvzd-54" vertex="1">
          <mxGeometry x="100" width="30" height="30" as="geometry" />
        </mxCell>
        <mxCell id="GBISdUFNZ5l1FWsdLvzd-363" value="" style="ellipse;whiteSpace=wrap;html=1;pointerEvents=0;fontFamily=Helvetica;fontSize=37;fillColor=#FF99CC;strokeColor=default;" parent="GBISdUFNZ5l1FWsdLvzd-54" vertex="1">
          <mxGeometry y="10" width="20" height="20" as="geometry" />
        </mxCell>
        <mxCell id="GBISdUFNZ5l1FWsdLvzd-59" value="" style="group" parent="WIyWlLk6GJQsqaUBKTNV-1" vertex="1" connectable="0">
          <mxGeometry x="1384" y="390" width="130" height="70" as="geometry" />
        </mxCell>
        <mxCell id="GBISdUFNZ5l1FWsdLvzd-60" value="60h&lt;br&gt;&lt;span style=&quot;font-size: 16px;&quot;&gt;&lt;b&gt;TEC518&lt;/b&gt;&lt;/span&gt;&lt;br&gt;&lt;div&gt;&lt;div&gt;TRABALHO DE&lt;/div&gt;&lt;div&gt;CONCLU. DE CURSO I&lt;/div&gt;&lt;/div&gt;" style="rounded=1;whiteSpace=wrap;html=1;shadow=0;glass=0;sketch=0;fillStyle=auto;fontSize=10;strokeColor=default;gradientColor=none;" parent="GBISdUFNZ5l1FWsdLvzd-59" vertex="1">
          <mxGeometry y="10" width="120" height="60" as="geometry" />
        </mxCell>
        <mxCell id="GBISdUFNZ5l1FWsdLvzd-61" value="&lt;font style=&quot;font-size: 17px;&quot;&gt;2&lt;/font&gt;" style="ellipse;whiteSpace=wrap;html=1;fontSize=10;" parent="GBISdUFNZ5l1FWsdLvzd-59" vertex="1">
          <mxGeometry x="100" width="30" height="30" as="geometry" />
        </mxCell>
        <mxCell id="GBISdUFNZ5l1FWsdLvzd-359" value="" style="ellipse;whiteSpace=wrap;html=1;pointerEvents=0;fontFamily=Helvetica;fontSize=37;fillColor=#FF33FF;strokeColor=default;" parent="GBISdUFNZ5l1FWsdLvzd-59" vertex="1">
          <mxGeometry y="10" width="20" height="20" as="geometry" />
        </mxCell>
        <mxCell id="GBISdUFNZ5l1FWsdLvzd-62" value="" style="group" parent="WIyWlLk6GJQsqaUBKTNV-1" vertex="1" connectable="0">
          <mxGeometry x="1384" y="290" width="130" height="70" as="geometry" />
        </mxCell>
        <mxCell id="GBISdUFNZ5l1FWsdLvzd-63" value="30h&lt;br&gt;&lt;span style=&quot;font-size: 16px;&quot;&gt;&lt;b&gt;TEC517&lt;/b&gt;&lt;/span&gt;&lt;br&gt;&lt;div&gt;&lt;div&gt;MET. E PESQ. DESE.&lt;/div&gt;&lt;div&gt;DE ENG.COMP&lt;/div&gt;&lt;/div&gt;" style="rounded=1;whiteSpace=wrap;html=1;shadow=0;glass=0;sketch=0;fillStyle=auto;fontSize=10;strokeColor=default;gradientColor=none;" parent="GBISdUFNZ5l1FWsdLvzd-62" vertex="1">
          <mxGeometry y="10" width="120" height="60" as="geometry" />
        </mxCell>
        <mxCell id="GBISdUFNZ5l1FWsdLvzd-64" value="&lt;font style=&quot;font-size: 17px;&quot;&gt;3&lt;/font&gt;" style="ellipse;whiteSpace=wrap;html=1;fontSize=10;" parent="GBISdUFNZ5l1FWsdLvzd-62" vertex="1">
          <mxGeometry x="100" width="30" height="30" as="geometry" />
        </mxCell>
        <mxCell id="GBISdUFNZ5l1FWsdLvzd-358" value="" style="ellipse;whiteSpace=wrap;html=1;pointerEvents=0;fontFamily=Helvetica;fontSize=37;fillColor=#9933FF;strokeColor=default;" parent="GBISdUFNZ5l1FWsdLvzd-62" vertex="1">
          <mxGeometry y="10" width="20" height="20" as="geometry" />
        </mxCell>
        <mxCell id="GBISdUFNZ5l1FWsdLvzd-66" value="" style="group" parent="WIyWlLk6GJQsqaUBKTNV-1" vertex="1" connectable="0">
          <mxGeometry x="180" y="640" width="130" height="80" as="geometry" />
        </mxCell>
        <mxCell id="GBISdUFNZ5l1FWsdLvzd-67" value="&lt;p style=&quot;line-height: 0.9;&quot;&gt;&lt;font style=&quot;line-height: 1.2;&quot;&gt;&lt;font style=&quot;font-size: 10px;&quot;&gt;60h&lt;/font&gt;&lt;br&gt;&lt;/font&gt;&lt;span style=&quot;font-size: 18px;&quot;&gt;&lt;b&gt;EXA705&lt;/b&gt;&lt;/span&gt;&lt;br&gt;&lt;span data-whi-docs=&quot;[[:p &amp;quot;ÁLGEBRA LINEAR I E&amp;quot;]]&quot;&gt;&lt;/span&gt;&amp;nbsp;&lt;span style=&quot;font-size: 10px;&quot;&gt;&lt;span style=&quot;background-color: initial;&quot;&gt;CÁLCULO DIFER. E&amp;nbsp;&lt;/span&gt;&lt;/span&gt;&lt;span style=&quot;font-size: 10px; background-color: initial;&quot;&gt;INTEGRAL II E&lt;/span&gt;&lt;/p&gt;" style="rounded=1;whiteSpace=wrap;html=1;fillStyle=auto;gradientColor=none;strokeColor=default;shadow=0;glass=0;sketch=0;" parent="GBISdUFNZ5l1FWsdLvzd-66" vertex="1">
          <mxGeometry y="10" width="120" height="60" as="geometry" />
        </mxCell>
        <mxCell id="GBISdUFNZ5l1FWsdLvzd-68" value="&lt;font style=&quot;font-size: 17px;&quot;&gt;11&lt;/font&gt;" style="ellipse;whiteSpace=wrap;html=1;fontSize=10;" parent="GBISdUFNZ5l1FWsdLvzd-66" vertex="1">
          <mxGeometry x="100" width="30" height="30" as="geometry" />
        </mxCell>
        <mxCell id="GBISdUFNZ5l1FWsdLvzd-323" value="" style="ellipse;whiteSpace=wrap;html=1;pointerEvents=0;fontFamily=Helvetica;fontSize=37;fillColor=#FFFF33;strokeColor=default;" parent="GBISdUFNZ5l1FWsdLvzd-66" vertex="1">
          <mxGeometry y="10" width="20" height="20" as="geometry" />
        </mxCell>
        <mxCell id="GBISdUFNZ5l1FWsdLvzd-69" value="" style="group" parent="WIyWlLk6GJQsqaUBKTNV-1" vertex="1" connectable="0">
          <mxGeometry x="120" y="740" width="130" height="70" as="geometry" />
        </mxCell>
        <mxCell id="GBISdUFNZ5l1FWsdLvzd-70" value="60h&lt;br&gt;&lt;span style=&quot;font-size: 16px;&quot;&gt;&lt;b&gt;EXA706&lt;/b&gt;&lt;/span&gt;&lt;br&gt;&lt;div&gt;&lt;div&gt;EQUAÇÕES&lt;/div&gt;&lt;div&gt;DIFERENCIAIS I-E&lt;/div&gt;&lt;/div&gt;" style="rounded=1;whiteSpace=wrap;html=1;shadow=0;glass=0;sketch=0;fillStyle=auto;fontSize=10;strokeColor=default;gradientColor=none;" parent="GBISdUFNZ5l1FWsdLvzd-69" vertex="1">
          <mxGeometry y="10" width="120" height="60" as="geometry" />
        </mxCell>
        <mxCell id="GBISdUFNZ5l1FWsdLvzd-71" value="&lt;font style=&quot;font-size: 17px;&quot;&gt;9&lt;/font&gt;" style="ellipse;whiteSpace=wrap;html=1;fontSize=10;" parent="GBISdUFNZ5l1FWsdLvzd-69" vertex="1">
          <mxGeometry x="100" width="30" height="30" as="geometry" />
        </mxCell>
        <mxCell id="GBISdUFNZ5l1FWsdLvzd-329" value="" style="ellipse;whiteSpace=wrap;html=1;pointerEvents=0;fontFamily=Helvetica;fontSize=37;fillColor=#99FF33;strokeColor=default;" parent="GBISdUFNZ5l1FWsdLvzd-69" vertex="1">
          <mxGeometry y="10" width="20" height="20" as="geometry" />
        </mxCell>
        <mxCell id="GBISdUFNZ5l1FWsdLvzd-72" value="" style="group" parent="WIyWlLk6GJQsqaUBKTNV-1" vertex="1" connectable="0">
          <mxGeometry x="320" y="740" width="126" height="70" as="geometry" />
        </mxCell>
        <mxCell id="GBISdUFNZ5l1FWsdLvzd-73" value="90h&lt;br&gt;&lt;span style=&quot;font-size: 16px;&quot;&gt;&lt;b&gt;FIS310&lt;/b&gt;&lt;/span&gt;&lt;div&gt;FÍSICA III&lt;br&gt;&lt;/div&gt;" style="rounded=1;whiteSpace=wrap;html=1;shadow=0;glass=0;sketch=0;fillStyle=auto;fontSize=10;strokeColor=default;gradientColor=none;" parent="GBISdUFNZ5l1FWsdLvzd-72" vertex="1">
          <mxGeometry y="10" width="120" height="60" as="geometry" />
        </mxCell>
        <mxCell id="GBISdUFNZ5l1FWsdLvzd-74" value="&lt;font style=&quot;font-size: 17px;&quot;&gt;5&lt;/font&gt;" style="ellipse;whiteSpace=wrap;html=1;fontSize=10;" parent="GBISdUFNZ5l1FWsdLvzd-72" vertex="1">
          <mxGeometry x="100" width="30" height="30" as="geometry" />
        </mxCell>
        <mxCell id="GBISdUFNZ5l1FWsdLvzd-336" value="" style="ellipse;whiteSpace=wrap;html=1;pointerEvents=0;fontFamily=Helvetica;fontSize=37;fillColor=#33FFFF;strokeColor=default;" parent="GBISdUFNZ5l1FWsdLvzd-72" vertex="1">
          <mxGeometry y="10" width="20" height="20" as="geometry" />
        </mxCell>
        <mxCell id="GBISdUFNZ5l1FWsdLvzd-77" value="" style="group" parent="WIyWlLk6GJQsqaUBKTNV-1" vertex="1" connectable="0">
          <mxGeometry x="460" y="640" width="130" height="70" as="geometry" />
        </mxCell>
        <mxCell id="GBISdUFNZ5l1FWsdLvzd-78" value="90h&lt;br&gt;&lt;span style=&quot;font-size: 16px;&quot;&gt;&lt;b&gt;FIS110&lt;/b&gt;&lt;/span&gt;&lt;br&gt;&lt;div&gt;FÍSICA I&lt;br&gt;&lt;/div&gt;" style="rounded=1;whiteSpace=wrap;html=1;shadow=0;glass=0;sketch=0;fillStyle=auto;fontSize=10;strokeColor=default;gradientColor=none;" parent="GBISdUFNZ5l1FWsdLvzd-77" vertex="1">
          <mxGeometry y="10" width="120" height="60" as="geometry" />
        </mxCell>
        <mxCell id="GBISdUFNZ5l1FWsdLvzd-79" value="&lt;font style=&quot;font-size: 17px;&quot;&gt;1&lt;/font&gt;" style="ellipse;whiteSpace=wrap;html=1;fontSize=10;" parent="GBISdUFNZ5l1FWsdLvzd-77" vertex="1">
          <mxGeometry x="100" width="30" height="30" as="geometry" />
        </mxCell>
        <mxCell id="GBISdUFNZ5l1FWsdLvzd-330" value="" style="ellipse;whiteSpace=wrap;html=1;pointerEvents=0;fontFamily=Helvetica;fontSize=37;fillColor=#99FF33;strokeColor=default;" parent="GBISdUFNZ5l1FWsdLvzd-77" vertex="1">
          <mxGeometry y="10" width="20" height="20" as="geometry" />
        </mxCell>
        <mxCell id="GBISdUFNZ5l1FWsdLvzd-80" value="" style="group" parent="WIyWlLk6GJQsqaUBKTNV-1" vertex="1" connectable="0">
          <mxGeometry x="320" y="640" width="130" height="70" as="geometry" />
        </mxCell>
        <mxCell id="GBISdUFNZ5l1FWsdLvzd-81" value="60h&lt;br&gt;&lt;span style=&quot;font-size: 16px;&quot;&gt;&lt;b&gt;EXA709&lt;/b&gt;&lt;/span&gt;&lt;br&gt;&lt;div&gt;&lt;div&gt;PROBABILIDADE E&lt;/div&gt;&lt;div&gt;ESTATÍSTICA I&lt;/div&gt;&lt;/div&gt;" style="rounded=1;whiteSpace=wrap;html=1;shadow=0;glass=0;sketch=0;fillStyle=auto;fontSize=10;strokeColor=default;gradientColor=none;" parent="GBISdUFNZ5l1FWsdLvzd-80" vertex="1">
          <mxGeometry y="10" width="120" height="60" as="geometry" />
        </mxCell>
        <mxCell id="GBISdUFNZ5l1FWsdLvzd-82" value="&lt;font style=&quot;font-size: 17px;&quot;&gt;1&lt;/font&gt;" style="ellipse;whiteSpace=wrap;html=1;fontSize=10;" parent="GBISdUFNZ5l1FWsdLvzd-80" vertex="1">
          <mxGeometry x="100" width="30" height="30" as="geometry" />
        </mxCell>
        <mxCell id="GBISdUFNZ5l1FWsdLvzd-348" value="" style="ellipse;whiteSpace=wrap;html=1;pointerEvents=0;fontFamily=Helvetica;fontSize=37;fillColor=#3333FF;strokeColor=default;" parent="GBISdUFNZ5l1FWsdLvzd-80" vertex="1">
          <mxGeometry y="10" width="20" height="20" as="geometry" />
        </mxCell>
        <mxCell id="GBISdUFNZ5l1FWsdLvzd-84" value="" style="group" parent="WIyWlLk6GJQsqaUBKTNV-1" vertex="1" connectable="0">
          <mxGeometry x="320" y="840" width="130" height="80" as="geometry" />
        </mxCell>
        <mxCell id="GBISdUFNZ5l1FWsdLvzd-85" value="&lt;p style=&quot;line-height: 0.9;&quot;&gt;&lt;font style=&quot;line-height: 1.2;&quot;&gt;&lt;font style=&quot;font-size: 10px;&quot;&gt;60h&lt;/font&gt;&lt;br&gt;&lt;/font&gt;&lt;span style=&quot;font-size: 18px;&quot;&gt;&lt;b&gt;TEC218&lt;/b&gt;&lt;/span&gt;&lt;br&gt;&lt;span style=&quot;font-size: 10px;&quot;&gt;&lt;span style=&quot;background-color: initial;&quot;&gt;CIRCUITOS&amp;nbsp;&lt;/span&gt;&lt;/span&gt;&lt;span style=&quot;background-color: initial; font-size: 10px;&quot;&gt;ELÉTRICOS&lt;/span&gt;&lt;/p&gt;" style="rounded=1;whiteSpace=wrap;html=1;fillStyle=auto;gradientColor=none;strokeColor=default;shadow=0;glass=0;sketch=0;" parent="GBISdUFNZ5l1FWsdLvzd-84" vertex="1">
          <mxGeometry y="10" width="120" height="60" as="geometry" />
        </mxCell>
        <mxCell id="GBISdUFNZ5l1FWsdLvzd-86" value="&lt;font style=&quot;font-size: 17px;&quot;&gt;4&lt;/font&gt;" style="ellipse;whiteSpace=wrap;html=1;fontSize=10;" parent="GBISdUFNZ5l1FWsdLvzd-84" vertex="1">
          <mxGeometry x="100" width="30" height="30" as="geometry" />
        </mxCell>
        <mxCell id="GBISdUFNZ5l1FWsdLvzd-347" value="" style="ellipse;whiteSpace=wrap;html=1;pointerEvents=0;fontFamily=Helvetica;fontSize=37;fillColor=#99CCFF;strokeColor=default;" parent="GBISdUFNZ5l1FWsdLvzd-84" vertex="1">
          <mxGeometry y="10" width="20" height="20" as="geometry" />
        </mxCell>
        <mxCell id="GBISdUFNZ5l1FWsdLvzd-87" value="" style="group" parent="WIyWlLk6GJQsqaUBKTNV-1" vertex="1" connectable="0">
          <mxGeometry x="460" y="940" width="130" height="70" as="geometry" />
        </mxCell>
        <mxCell id="GBISdUFNZ5l1FWsdLvzd-88" value="30h&lt;br&gt;&lt;span style=&quot;font-size: 16px;&quot;&gt;&lt;b&gt;TEC506&lt;/b&gt;&lt;/span&gt;&lt;br&gt;&lt;div&gt;&lt;div&gt;MI-PROJ. DE CIRC.&lt;/div&gt;&lt;div&gt;ELETRÔNICOS&lt;/div&gt;&lt;/div&gt;" style="rounded=1;whiteSpace=wrap;html=1;shadow=0;glass=0;sketch=0;fillStyle=auto;fontSize=10;strokeColor=default;gradientColor=none;" parent="GBISdUFNZ5l1FWsdLvzd-87" vertex="1">
          <mxGeometry y="10" width="120" height="60" as="geometry" />
        </mxCell>
        <mxCell id="GBISdUFNZ5l1FWsdLvzd-89" value="&lt;font style=&quot;font-size: 17px;&quot;&gt;1&lt;/font&gt;" style="ellipse;whiteSpace=wrap;html=1;fontSize=10;" parent="GBISdUFNZ5l1FWsdLvzd-87" vertex="1">
          <mxGeometry x="100" width="30" height="30" as="geometry" />
        </mxCell>
        <mxCell id="GBISdUFNZ5l1FWsdLvzd-353" value="" style="ellipse;whiteSpace=wrap;html=1;pointerEvents=0;fontFamily=Helvetica;fontSize=37;fillColor=#3333FF;strokeColor=default;" parent="GBISdUFNZ5l1FWsdLvzd-87" vertex="1">
          <mxGeometry y="10" width="20" height="20" as="geometry" />
        </mxCell>
        <mxCell id="GBISdUFNZ5l1FWsdLvzd-90" value="" style="group" parent="WIyWlLk6GJQsqaUBKTNV-1" vertex="1" connectable="0">
          <mxGeometry x="20" y="1040" width="126" height="70" as="geometry" />
        </mxCell>
        <mxCell id="GBISdUFNZ5l1FWsdLvzd-91" value="30h&lt;br&gt;&lt;span style=&quot;font-size: 16px;&quot;&gt;&lt;b&gt;EXA703&lt;/b&gt;&lt;/span&gt;&lt;div&gt;&lt;div&gt;PROCESSAM. DIGITAL&lt;/div&gt;&lt;div&gt;DE SINAIS&lt;/div&gt;&lt;/div&gt;" style="rounded=1;whiteSpace=wrap;html=1;shadow=0;glass=0;sketch=0;fillStyle=auto;fontSize=10;strokeColor=default;gradientColor=none;" parent="GBISdUFNZ5l1FWsdLvzd-90" vertex="1">
          <mxGeometry y="10" width="120" height="60" as="geometry" />
        </mxCell>
        <mxCell id="GBISdUFNZ5l1FWsdLvzd-92" value="&lt;font style=&quot;font-size: 17px;&quot;&gt;1&lt;/font&gt;" style="ellipse;whiteSpace=wrap;html=1;fontSize=10;" parent="GBISdUFNZ5l1FWsdLvzd-90" vertex="1">
          <mxGeometry x="100" width="30" height="30" as="geometry" />
        </mxCell>
        <mxCell id="GBISdUFNZ5l1FWsdLvzd-355" value="" style="ellipse;whiteSpace=wrap;html=1;pointerEvents=0;fontFamily=Helvetica;fontSize=37;fillColor=#9933FF;strokeColor=default;" parent="GBISdUFNZ5l1FWsdLvzd-90" vertex="1">
          <mxGeometry y="10" width="20" height="20" as="geometry" />
        </mxCell>
        <mxCell id="GBISdUFNZ5l1FWsdLvzd-95" value="" style="group" parent="WIyWlLk6GJQsqaUBKTNV-1" vertex="1" connectable="0">
          <mxGeometry x="320" y="940" width="130" height="70" as="geometry" />
        </mxCell>
        <mxCell id="GBISdUFNZ5l1FWsdLvzd-96" value="30h&lt;br&gt;&lt;span style=&quot;font-size: 16px;&quot;&gt;&lt;b&gt;TEC219&lt;/b&gt;&lt;/span&gt;&lt;br&gt;&lt;div&gt;ELETRÔNICA GERAL&lt;br&gt;&lt;/div&gt;" style="rounded=1;whiteSpace=wrap;html=1;shadow=0;glass=0;sketch=0;fillStyle=auto;fontSize=10;strokeColor=default;gradientColor=none;" parent="GBISdUFNZ5l1FWsdLvzd-95" vertex="1">
          <mxGeometry y="10" width="120" height="60" as="geometry" />
        </mxCell>
        <mxCell id="GBISdUFNZ5l1FWsdLvzd-97" value="&lt;font style=&quot;font-size: 17px;&quot;&gt;2&lt;/font&gt;" style="ellipse;whiteSpace=wrap;html=1;fontSize=10;" parent="GBISdUFNZ5l1FWsdLvzd-95" vertex="1">
          <mxGeometry x="100" width="30" height="30" as="geometry" />
        </mxCell>
        <mxCell id="GBISdUFNZ5l1FWsdLvzd-349" value="" style="ellipse;whiteSpace=wrap;html=1;pointerEvents=0;fontFamily=Helvetica;fontSize=37;fillColor=#3333FF;strokeColor=default;" parent="GBISdUFNZ5l1FWsdLvzd-95" vertex="1">
          <mxGeometry y="10" width="20" height="20" as="geometry" />
        </mxCell>
        <mxCell id="GBISdUFNZ5l1FWsdLvzd-98" value="" style="group" parent="WIyWlLk6GJQsqaUBKTNV-1" vertex="1" connectable="0">
          <mxGeometry x="50" y="940" width="130" height="70" as="geometry" />
        </mxCell>
        <mxCell id="GBISdUFNZ5l1FWsdLvzd-99" value="60h&lt;br&gt;&lt;span style=&quot;font-size: 16px;&quot;&gt;&lt;b&gt;TEC412&lt;/b&gt;&lt;/span&gt;&lt;br&gt;&lt;div&gt;SINAIS E SISTEMAS&lt;br&gt;&lt;/div&gt;" style="rounded=1;whiteSpace=wrap;html=1;shadow=0;glass=0;sketch=0;fillStyle=auto;fontSize=10;strokeColor=default;gradientColor=none;" parent="GBISdUFNZ5l1FWsdLvzd-98" vertex="1">
          <mxGeometry y="10" width="120" height="60" as="geometry" />
        </mxCell>
        <mxCell id="GBISdUFNZ5l1FWsdLvzd-100" value="&lt;font style=&quot;font-size: 17px;&quot;&gt;3&lt;/font&gt;" style="ellipse;whiteSpace=wrap;html=1;fontSize=10;" parent="GBISdUFNZ5l1FWsdLvzd-98" vertex="1">
          <mxGeometry x="100" width="30" height="30" as="geometry" />
        </mxCell>
        <mxCell id="GBISdUFNZ5l1FWsdLvzd-351" value="" style="ellipse;whiteSpace=wrap;html=1;pointerEvents=0;fontFamily=Helvetica;fontSize=37;fillColor=#3333FF;strokeColor=default;" parent="GBISdUFNZ5l1FWsdLvzd-98" vertex="1">
          <mxGeometry y="10" width="20" height="20" as="geometry" />
        </mxCell>
        <mxCell id="GBISdUFNZ5l1FWsdLvzd-102" value="" style="group" parent="WIyWlLk6GJQsqaUBKTNV-1" vertex="1" connectable="0">
          <mxGeometry x="320" y="1040" width="130" height="80" as="geometry" />
        </mxCell>
        <mxCell id="GBISdUFNZ5l1FWsdLvzd-103" value="&lt;p style=&quot;line-height: 0.9;&quot;&gt;&lt;font style=&quot;line-height: 1.2;&quot;&gt;&lt;font style=&quot;font-size: 10px;&quot;&gt;30h&lt;/font&gt;&lt;br&gt;&lt;/font&gt;&lt;span style=&quot;font-size: 18px;&quot;&gt;&lt;b&gt;TEC501&lt;/b&gt;&lt;/span&gt;&lt;br&gt;&lt;span data-whi-docs=&quot;[[:p &amp;quot;ÁLGEBRA LINEAR I E&amp;quot;]]&quot;&gt;&lt;/span&gt;&amp;nbsp;&lt;span style=&quot;font-size: 10px;&quot;&gt;&lt;span style=&quot;background-color: initial;&quot;&gt;ELETR. PROC. DIGIT.&amp;nbsp;&lt;/span&gt;&lt;/span&gt;&lt;span style=&quot;font-size: 10px; background-color: initial;&quot;&gt;DE SINAIS&lt;/span&gt;&lt;/p&gt;" style="rounded=1;whiteSpace=wrap;html=1;fillStyle=auto;gradientColor=none;strokeColor=default;shadow=0;glass=0;sketch=0;" parent="GBISdUFNZ5l1FWsdLvzd-102" vertex="1">
          <mxGeometry y="10" width="120" height="60" as="geometry" />
        </mxCell>
        <mxCell id="GBISdUFNZ5l1FWsdLvzd-104" value="&lt;font style=&quot;font-size: 17px;&quot;&gt;1&lt;/font&gt;" style="ellipse;whiteSpace=wrap;html=1;fontSize=10;" parent="GBISdUFNZ5l1FWsdLvzd-102" vertex="1">
          <mxGeometry x="100" width="30" height="30" as="geometry" />
        </mxCell>
        <mxCell id="GBISdUFNZ5l1FWsdLvzd-357" value="" style="ellipse;whiteSpace=wrap;html=1;pointerEvents=0;fontFamily=Helvetica;fontSize=37;fillColor=#9933FF;strokeColor=default;" parent="GBISdUFNZ5l1FWsdLvzd-102" vertex="1">
          <mxGeometry y="10" width="20" height="20" as="geometry" />
        </mxCell>
        <mxCell id="GBISdUFNZ5l1FWsdLvzd-105" value="" style="group" parent="WIyWlLk6GJQsqaUBKTNV-1" vertex="1" connectable="0">
          <mxGeometry x="670" y="640" width="130" height="70" as="geometry" />
        </mxCell>
        <mxCell id="GBISdUFNZ5l1FWsdLvzd-106" value="60h&lt;br&gt;&lt;span style=&quot;font-size: 16px;&quot;&gt;&lt;b&gt;TEC402&lt;/b&gt;&lt;/span&gt;&lt;br&gt;&lt;div&gt;&lt;div&gt;ARQUITETURA DE&lt;/div&gt;&lt;div&gt;COMPUTADORES&lt;/div&gt;&lt;/div&gt;" style="rounded=1;whiteSpace=wrap;html=1;shadow=0;glass=0;sketch=0;fillStyle=auto;fontSize=10;strokeColor=default;gradientColor=none;" parent="GBISdUFNZ5l1FWsdLvzd-105" vertex="1">
          <mxGeometry y="10" width="120" height="60" as="geometry" />
        </mxCell>
        <mxCell id="GBISdUFNZ5l1FWsdLvzd-107" value="&lt;font style=&quot;font-size: 17px;&quot;&gt;1&lt;/font&gt;" style="ellipse;whiteSpace=wrap;html=1;fontSize=10;" parent="GBISdUFNZ5l1FWsdLvzd-105" vertex="1">
          <mxGeometry x="100" width="30" height="30" as="geometry" />
        </mxCell>
        <mxCell id="GBISdUFNZ5l1FWsdLvzd-331" value="" style="ellipse;whiteSpace=wrap;html=1;pointerEvents=0;fontFamily=Helvetica;fontSize=37;fillColor=#99FF33;strokeColor=default;" parent="GBISdUFNZ5l1FWsdLvzd-105" vertex="1">
          <mxGeometry y="10" width="20" height="20" as="geometry" />
        </mxCell>
        <mxCell id="GBISdUFNZ5l1FWsdLvzd-108" value="" style="group" parent="WIyWlLk6GJQsqaUBKTNV-1" vertex="1" connectable="0">
          <mxGeometry x="980" y="640" width="126" height="70" as="geometry" />
        </mxCell>
        <mxCell id="GBISdUFNZ5l1FWsdLvzd-109" value="30h&lt;br&gt;&lt;span style=&quot;font-size: 16px;&quot;&gt;&lt;b&gt;EXA806&lt;/b&gt;&lt;/span&gt;&lt;div&gt;MI - PROGRAMAÇÃO&lt;br&gt;&lt;/div&gt;" style="rounded=1;whiteSpace=wrap;html=1;shadow=0;glass=0;sketch=0;fillStyle=auto;fontSize=10;strokeColor=default;gradientColor=none;" parent="GBISdUFNZ5l1FWsdLvzd-108" vertex="1">
          <mxGeometry y="10" width="120" height="60" as="geometry" />
        </mxCell>
        <mxCell id="GBISdUFNZ5l1FWsdLvzd-110" value="&lt;font style=&quot;font-size: 17px;&quot;&gt;9&lt;/font&gt;" style="ellipse;whiteSpace=wrap;html=1;fontSize=10;" parent="GBISdUFNZ5l1FWsdLvzd-108" vertex="1">
          <mxGeometry x="100" width="30" height="30" as="geometry" />
        </mxCell>
        <mxCell id="GBISdUFNZ5l1FWsdLvzd-325" value="" style="ellipse;whiteSpace=wrap;html=1;pointerEvents=0;fontFamily=Helvetica;fontSize=37;fillColor=#FFFF33;strokeColor=default;" parent="GBISdUFNZ5l1FWsdLvzd-108" vertex="1">
          <mxGeometry y="10" width="20" height="20" as="geometry" />
        </mxCell>
        <mxCell id="GBISdUFNZ5l1FWsdLvzd-113" value="" style="group" parent="WIyWlLk6GJQsqaUBKTNV-1" vertex="1" connectable="0">
          <mxGeometry x="830" y="540" width="130" height="70" as="geometry" />
        </mxCell>
        <mxCell id="GBISdUFNZ5l1FWsdLvzd-114" value="60h&lt;br&gt;&lt;span style=&quot;font-size: 16px;&quot;&gt;&lt;b&gt;TEC498&lt;/b&gt;&lt;/span&gt;&lt;br&gt;&lt;div&gt;&lt;div&gt;MI-PROJ. DE&lt;/div&gt;&lt;div&gt;CIRCUITOS DIGITAIS&lt;/div&gt;&lt;/div&gt;" style="rounded=1;whiteSpace=wrap;html=1;shadow=0;glass=0;sketch=0;fillStyle=auto;fontSize=10;strokeColor=default;gradientColor=none;" parent="GBISdUFNZ5l1FWsdLvzd-113" vertex="1">
          <mxGeometry y="9.999999999999998" width="120" height="60" as="geometry" />
        </mxCell>
        <mxCell id="GBISdUFNZ5l1FWsdLvzd-115" value="&lt;font style=&quot;font-size: 17px;&quot;&gt;2&lt;/font&gt;" style="ellipse;whiteSpace=wrap;html=1;fontSize=10;" parent="GBISdUFNZ5l1FWsdLvzd-113" vertex="1">
          <mxGeometry x="100" width="30" height="30" as="geometry" />
        </mxCell>
        <mxCell id="GBISdUFNZ5l1FWsdLvzd-316" value="" style="ellipse;whiteSpace=wrap;html=1;pointerEvents=0;fontFamily=Helvetica;fontSize=37;fillColor=#FF9933;strokeColor=default;" parent="GBISdUFNZ5l1FWsdLvzd-113" vertex="1">
          <mxGeometry y="10" width="20" height="20" as="geometry" />
        </mxCell>
        <mxCell id="GBISdUFNZ5l1FWsdLvzd-116" value="" style="group" parent="WIyWlLk6GJQsqaUBKTNV-1" vertex="1" connectable="0">
          <mxGeometry x="670" y="540" width="130" height="70" as="geometry" />
        </mxCell>
        <mxCell id="GBISdUFNZ5l1FWsdLvzd-117" value="30h&lt;br&gt;&lt;span style=&quot;font-size: 16px;&quot;&gt;&lt;b&gt;TEC401&lt;/b&gt;&lt;/span&gt;&lt;br&gt;&lt;div&gt;CIRCUITOS DIGITAIS&lt;br&gt;&lt;/div&gt;" style="rounded=1;whiteSpace=wrap;html=1;shadow=0;glass=0;sketch=0;fillStyle=auto;fontSize=10;strokeColor=default;gradientColor=none;" parent="GBISdUFNZ5l1FWsdLvzd-116" vertex="1">
          <mxGeometry y="10" width="120" height="60" as="geometry" />
        </mxCell>
        <mxCell id="GBISdUFNZ5l1FWsdLvzd-118" value="&lt;font style=&quot;font-size: 17px;&quot;&gt;5&lt;/font&gt;" style="ellipse;whiteSpace=wrap;html=1;fontSize=10;" parent="GBISdUFNZ5l1FWsdLvzd-116" vertex="1">
          <mxGeometry x="100" width="30" height="30" as="geometry" />
        </mxCell>
        <mxCell id="GBISdUFNZ5l1FWsdLvzd-315" value="" style="ellipse;whiteSpace=wrap;html=1;pointerEvents=0;fontFamily=Helvetica;fontSize=37;fillColor=#FF9933;strokeColor=default;" parent="GBISdUFNZ5l1FWsdLvzd-116" vertex="1">
          <mxGeometry y="10" width="20" height="20" as="geometry" />
        </mxCell>
        <mxCell id="GBISdUFNZ5l1FWsdLvzd-123" value="" style="group" parent="WIyWlLk6GJQsqaUBKTNV-1" vertex="1" connectable="0">
          <mxGeometry x="680" y="930" width="130" height="70" as="geometry" />
        </mxCell>
        <mxCell id="GBISdUFNZ5l1FWsdLvzd-124" value="60h&lt;br&gt;&lt;span style=&quot;font-size: 16px;&quot;&gt;&lt;b&gt;TEC408&lt;/b&gt;&lt;/span&gt;&lt;br&gt;&lt;div&gt;&lt;div&gt;SISTEMAS&lt;/div&gt;&lt;div&gt;OPERACIONAIS&lt;/div&gt;&lt;/div&gt;" style="rounded=1;whiteSpace=wrap;html=1;shadow=0;glass=0;sketch=0;fillStyle=auto;fontSize=10;strokeColor=default;gradientColor=none;" parent="GBISdUFNZ5l1FWsdLvzd-123" vertex="1">
          <mxGeometry y="10" width="120" height="60" as="geometry" />
        </mxCell>
        <mxCell id="GBISdUFNZ5l1FWsdLvzd-125" value="&lt;span style=&quot;font-size: 17px;&quot;&gt;3&lt;/span&gt;" style="ellipse;whiteSpace=wrap;html=1;fontSize=10;" parent="GBISdUFNZ5l1FWsdLvzd-123" vertex="1">
          <mxGeometry x="100" width="30" height="30" as="geometry" />
        </mxCell>
        <mxCell id="GBISdUFNZ5l1FWsdLvzd-335" value="" style="ellipse;whiteSpace=wrap;html=1;pointerEvents=0;fontFamily=Helvetica;fontSize=37;fillColor=#99FF33;strokeColor=default;" parent="GBISdUFNZ5l1FWsdLvzd-123" vertex="1">
          <mxGeometry y="10" width="20" height="20" as="geometry" />
        </mxCell>
        <mxCell id="GBISdUFNZ5l1FWsdLvzd-126" value="" style="group" parent="WIyWlLk6GJQsqaUBKTNV-1" vertex="1" connectable="0">
          <mxGeometry x="680" y="1030" width="134" height="80" as="geometry" />
        </mxCell>
        <mxCell id="GBISdUFNZ5l1FWsdLvzd-127" value="60h&lt;br&gt;&lt;span style=&quot;font-size: 16px;&quot;&gt;&lt;b&gt;TEC409&lt;/b&gt;&lt;/span&gt;&lt;div&gt;&lt;div&gt;REDES DE&lt;/div&gt;&lt;div&gt;COMPUTADORES&lt;/div&gt;&lt;/div&gt;" style="rounded=1;whiteSpace=wrap;html=1;shadow=0;glass=0;sketch=0;fillStyle=auto;fontSize=10;strokeColor=default;gradientColor=none;" parent="GBISdUFNZ5l1FWsdLvzd-126" vertex="1">
          <mxGeometry y="10" width="120" height="60" as="geometry" />
        </mxCell>
        <mxCell id="GBISdUFNZ5l1FWsdLvzd-128" value="&lt;font style=&quot;font-size: 17px;&quot;&gt;1&lt;/font&gt;" style="ellipse;whiteSpace=wrap;html=1;fontSize=10;" parent="GBISdUFNZ5l1FWsdLvzd-126" vertex="1">
          <mxGeometry x="100" width="30" height="30" as="geometry" />
        </mxCell>
        <mxCell id="GBISdUFNZ5l1FWsdLvzd-129" value="" style="group" parent="GBISdUFNZ5l1FWsdLvzd-126" vertex="1" connectable="0">
          <mxGeometry x="143" y="10" width="134" height="70" as="geometry" />
        </mxCell>
        <mxCell id="GBISdUFNZ5l1FWsdLvzd-246" value="" style="group" parent="GBISdUFNZ5l1FWsdLvzd-129" vertex="1" connectable="0">
          <mxGeometry y="-10" width="134" height="70" as="geometry" />
        </mxCell>
        <mxCell id="GBISdUFNZ5l1FWsdLvzd-130" value="60h&lt;br&gt;&lt;span style=&quot;font-size: 16px;&quot;&gt;&lt;b&gt;TEC502&lt;/b&gt;&lt;/span&gt;&lt;br&gt;&lt;div&gt;&lt;div&gt;MI-CONCORRÊNCIA E&lt;/div&gt;&lt;div&gt;CONECTIVIDADE&lt;/div&gt;&lt;/div&gt;" style="rounded=1;whiteSpace=wrap;html=1;shadow=0;glass=0;sketch=0;fillStyle=auto;fontSize=10;strokeColor=default;gradientColor=none;" parent="GBISdUFNZ5l1FWsdLvzd-246" vertex="1">
          <mxGeometry y="10" width="120" height="60" as="geometry" />
        </mxCell>
        <mxCell id="GBISdUFNZ5l1FWsdLvzd-137" value="&lt;font style=&quot;font-size: 17px;&quot;&gt;1&lt;/font&gt;" style="ellipse;whiteSpace=wrap;html=1;fontSize=10;" parent="GBISdUFNZ5l1FWsdLvzd-246" vertex="1">
          <mxGeometry x="104" width="30" height="30" as="geometry" />
        </mxCell>
        <mxCell id="GBISdUFNZ5l1FWsdLvzd-338" value="" style="ellipse;whiteSpace=wrap;html=1;pointerEvents=0;fontFamily=Helvetica;fontSize=37;fillColor=#33FFFF;strokeColor=default;" parent="GBISdUFNZ5l1FWsdLvzd-246" vertex="1">
          <mxGeometry y="10" width="20" height="20" as="geometry" />
        </mxCell>
        <mxCell id="GBISdUFNZ5l1FWsdLvzd-337" value="" style="ellipse;whiteSpace=wrap;html=1;pointerEvents=0;fontFamily=Helvetica;fontSize=37;fillColor=#33FFFF;strokeColor=default;" parent="GBISdUFNZ5l1FWsdLvzd-126" vertex="1">
          <mxGeometry y="10" width="20" height="20" as="geometry" />
        </mxCell>
        <mxCell id="GBISdUFNZ5l1FWsdLvzd-134" value="" style="group" parent="WIyWlLk6GJQsqaUBKTNV-1" vertex="1" connectable="0">
          <mxGeometry x="1260" y="640" width="130" height="70" as="geometry" />
        </mxCell>
        <mxCell id="GBISdUFNZ5l1FWsdLvzd-135" value="60h&lt;br&gt;&lt;span style=&quot;font-size: 16px;&quot;&gt;&lt;b&gt;EXA807&lt;/b&gt;&lt;/span&gt;&lt;br&gt;&lt;div&gt;&lt;div&gt;ESTRUTURAS&lt;/div&gt;&lt;div&gt;DISCRETAS&lt;/div&gt;&lt;/div&gt;" style="rounded=1;whiteSpace=wrap;html=1;shadow=0;glass=0;sketch=0;fillStyle=auto;fontSize=10;strokeColor=default;gradientColor=none;" parent="GBISdUFNZ5l1FWsdLvzd-134" vertex="1">
          <mxGeometry y="10" width="120" height="60" as="geometry" />
        </mxCell>
        <mxCell id="GBISdUFNZ5l1FWsdLvzd-136" value="&lt;font style=&quot;font-size: 17px;&quot;&gt;2&lt;/font&gt;" style="ellipse;whiteSpace=wrap;html=1;fontSize=10;" parent="GBISdUFNZ5l1FWsdLvzd-134" vertex="1">
          <mxGeometry x="100" width="30" height="30" as="geometry" />
        </mxCell>
        <mxCell id="GBISdUFNZ5l1FWsdLvzd-326" value="" style="ellipse;whiteSpace=wrap;html=1;pointerEvents=0;fontFamily=Helvetica;fontSize=37;fillColor=#FFFF33;strokeColor=default;" parent="GBISdUFNZ5l1FWsdLvzd-134" vertex="1">
          <mxGeometry y="10" width="20" height="20" as="geometry" />
        </mxCell>
        <mxCell id="GBISdUFNZ5l1FWsdLvzd-138" value="" style="group" parent="WIyWlLk6GJQsqaUBKTNV-1" vertex="1" connectable="0">
          <mxGeometry x="790" y="800" width="130" height="80" as="geometry" />
        </mxCell>
        <mxCell id="GBISdUFNZ5l1FWsdLvzd-139" value="&lt;p style=&quot;line-height: 0.9;&quot;&gt;&lt;font style=&quot;line-height: 1.2;&quot;&gt;&lt;font style=&quot;font-size: 10px;&quot;&gt;60h&lt;/font&gt;&lt;br&gt;&lt;/font&gt;&lt;span style=&quot;font-size: 18px;&quot;&gt;&lt;b&gt;EXA809&lt;/b&gt;&lt;/span&gt;&lt;br&gt;&lt;span data-whi-docs=&quot;[[:p &amp;quot;ÁLGEBRA LINEAR I E&amp;quot;]]&quot;&gt;&lt;/span&gt;&amp;nbsp;&lt;span style=&quot;font-size: 10px;&quot;&gt;&lt;span style=&quot;background-color: initial;&quot;&gt;ENGENHARIA DE&amp;nbsp;&lt;/span&gt;&lt;/span&gt;&lt;span style=&quot;font-size: 10px; background-color: initial;&quot;&gt;SOFTWARE&lt;/span&gt;&lt;/p&gt;" style="rounded=1;whiteSpace=wrap;html=1;fillStyle=auto;gradientColor=none;strokeColor=default;shadow=0;glass=0;sketch=0;" parent="GBISdUFNZ5l1FWsdLvzd-138" vertex="1">
          <mxGeometry x="-40" y="10" width="120" height="60" as="geometry" />
        </mxCell>
        <mxCell id="GBISdUFNZ5l1FWsdLvzd-140" value="&lt;font style=&quot;font-size: 17px;&quot;&gt;1&lt;/font&gt;" style="ellipse;whiteSpace=wrap;html=1;fontSize=10;" parent="GBISdUFNZ5l1FWsdLvzd-138" vertex="1">
          <mxGeometry x="60" width="30" height="30" as="geometry" />
        </mxCell>
        <mxCell id="GBISdUFNZ5l1FWsdLvzd-341" value="" style="ellipse;whiteSpace=wrap;html=1;pointerEvents=0;fontFamily=Helvetica;fontSize=37;fillColor=#66B2FF;strokeColor=default;" parent="GBISdUFNZ5l1FWsdLvzd-138" vertex="1">
          <mxGeometry x="-40" y="10" width="20" height="20" as="geometry" />
        </mxCell>
        <mxCell id="GBISdUFNZ5l1FWsdLvzd-141" value="" style="group" parent="WIyWlLk6GJQsqaUBKTNV-1" vertex="1" connectable="0">
          <mxGeometry x="1120" y="890" width="130" height="70" as="geometry" />
        </mxCell>
        <mxCell id="GBISdUFNZ5l1FWsdLvzd-142" value="60h&lt;br&gt;&lt;span style=&quot;font-size: 16px;&quot;&gt;&lt;b&gt;EXA544&lt;/b&gt;&lt;/span&gt;&lt;br&gt;&lt;div&gt;&lt;div&gt;LINGUA. FORMAIS E&lt;/div&gt;&lt;div&gt;COMPILADORES&lt;/div&gt;&lt;/div&gt;" style="rounded=1;whiteSpace=wrap;html=1;shadow=0;glass=0;sketch=0;fillStyle=auto;fontSize=10;strokeColor=default;gradientColor=none;" parent="GBISdUFNZ5l1FWsdLvzd-141" vertex="1">
          <mxGeometry y="10" width="120" height="60" as="geometry" />
        </mxCell>
        <mxCell id="GBISdUFNZ5l1FWsdLvzd-143" value="&lt;font style=&quot;font-size: 17px;&quot;&gt;1&lt;/font&gt;" style="ellipse;whiteSpace=wrap;html=1;fontSize=10;" parent="GBISdUFNZ5l1FWsdLvzd-141" vertex="1">
          <mxGeometry x="100" width="30" height="30" as="geometry" />
        </mxCell>
        <mxCell id="GBISdUFNZ5l1FWsdLvzd-360" value="" style="ellipse;whiteSpace=wrap;html=1;pointerEvents=0;fontFamily=Helvetica;fontSize=37;fillColor=#FF33FF;strokeColor=default;" parent="GBISdUFNZ5l1FWsdLvzd-141" vertex="1">
          <mxGeometry y="10" width="20" height="20" as="geometry" />
        </mxCell>
        <mxCell id="GBISdUFNZ5l1FWsdLvzd-144" value="" style="group" parent="WIyWlLk6GJQsqaUBKTNV-1" vertex="1" connectable="0">
          <mxGeometry x="1262" y="890" width="126" height="70" as="geometry" />
        </mxCell>
        <mxCell id="GBISdUFNZ5l1FWsdLvzd-145" value="60h&lt;br&gt;&lt;span style=&quot;font-size: 16px;&quot;&gt;&lt;b&gt;EXA869&lt;/b&gt;&lt;/span&gt;&lt;div&gt;MI-PROCE.DE LING.DE&lt;/div&gt;&lt;div&gt;PROGRAMÇÃO&lt;/div&gt;" style="rounded=1;whiteSpace=wrap;html=1;shadow=0;glass=0;sketch=0;fillStyle=auto;fontSize=10;strokeColor=default;gradientColor=none;" parent="GBISdUFNZ5l1FWsdLvzd-144" vertex="1">
          <mxGeometry y="10" width="120" height="60" as="geometry" />
        </mxCell>
        <mxCell id="GBISdUFNZ5l1FWsdLvzd-146" value="&lt;font style=&quot;font-size: 17px;&quot;&gt;1&lt;/font&gt;" style="ellipse;whiteSpace=wrap;html=1;fontSize=10;" parent="GBISdUFNZ5l1FWsdLvzd-144" vertex="1">
          <mxGeometry x="100" width="30" height="30" as="geometry" />
        </mxCell>
        <mxCell id="GBISdUFNZ5l1FWsdLvzd-361" value="" style="ellipse;whiteSpace=wrap;html=1;pointerEvents=0;fontFamily=Helvetica;fontSize=37;fillColor=#FF33FF;strokeColor=default;" parent="GBISdUFNZ5l1FWsdLvzd-144" vertex="1">
          <mxGeometry y="10" width="20" height="20" as="geometry" />
        </mxCell>
        <mxCell id="GBISdUFNZ5l1FWsdLvzd-149" value="" style="group" parent="WIyWlLk6GJQsqaUBKTNV-1" vertex="1" connectable="0">
          <mxGeometry x="1031" y="800" width="130" height="70" as="geometry" />
        </mxCell>
        <mxCell id="GBISdUFNZ5l1FWsdLvzd-266" value="" style="group" parent="GBISdUFNZ5l1FWsdLvzd-149" vertex="1" connectable="0">
          <mxGeometry width="130" height="70" as="geometry" />
        </mxCell>
        <mxCell id="GBISdUFNZ5l1FWsdLvzd-150" value="60h&lt;br&gt;&lt;span style=&quot;font-size: 16px;&quot;&gt;&lt;b&gt;EXA857&lt;/b&gt;&lt;/span&gt;&lt;br&gt;&lt;div&gt;&lt;div&gt;MI - ENGENHARIA DE&lt;/div&gt;&lt;div&gt;SOFTWARE&lt;/div&gt;&lt;/div&gt;" style="rounded=1;whiteSpace=wrap;html=1;shadow=0;glass=0;sketch=0;fillStyle=auto;fontSize=10;strokeColor=default;gradientColor=none;" parent="GBISdUFNZ5l1FWsdLvzd-266" vertex="1">
          <mxGeometry y="10" width="120" height="60" as="geometry" />
        </mxCell>
        <mxCell id="GBISdUFNZ5l1FWsdLvzd-151" value="&lt;font style=&quot;font-size: 17px;&quot;&gt;1&lt;/font&gt;" style="ellipse;whiteSpace=wrap;html=1;fontSize=10;" parent="GBISdUFNZ5l1FWsdLvzd-266" vertex="1">
          <mxGeometry x="100" width="30" height="30" as="geometry" />
        </mxCell>
        <mxCell id="GBISdUFNZ5l1FWsdLvzd-343" value="" style="ellipse;whiteSpace=wrap;html=1;pointerEvents=0;fontFamily=Helvetica;fontSize=37;fillColor=#66B2FF;strokeColor=default;" parent="GBISdUFNZ5l1FWsdLvzd-266" vertex="1">
          <mxGeometry y="10" width="20" height="20" as="geometry" />
        </mxCell>
        <mxCell id="GBISdUFNZ5l1FWsdLvzd-152" value="" style="group" parent="WIyWlLk6GJQsqaUBKTNV-1" vertex="1" connectable="0">
          <mxGeometry x="890" y="800" width="130" height="70" as="geometry" />
        </mxCell>
        <mxCell id="GBISdUFNZ5l1FWsdLvzd-153" value="30h&lt;br&gt;&lt;span style=&quot;font-size: 16px;&quot;&gt;&lt;b&gt;EXA810&lt;/b&gt;&lt;/span&gt;&lt;br&gt;&lt;div&gt;BANCOS DE DADOS&lt;br&gt;&lt;/div&gt;" style="rounded=1;whiteSpace=wrap;html=1;shadow=0;glass=0;sketch=0;fillStyle=auto;fontSize=10;strokeColor=default;gradientColor=none;" parent="GBISdUFNZ5l1FWsdLvzd-152" vertex="1">
          <mxGeometry y="10" width="120" height="60" as="geometry" />
        </mxCell>
        <mxCell id="GBISdUFNZ5l1FWsdLvzd-154" value="&lt;font style=&quot;font-size: 17px;&quot;&gt;1&lt;/font&gt;" style="ellipse;whiteSpace=wrap;html=1;fontSize=10;" parent="GBISdUFNZ5l1FWsdLvzd-152" vertex="1">
          <mxGeometry x="100" width="30" height="30" as="geometry" />
        </mxCell>
        <mxCell id="GBISdUFNZ5l1FWsdLvzd-342" value="" style="ellipse;whiteSpace=wrap;html=1;pointerEvents=0;fontFamily=Helvetica;fontSize=37;fillColor=#66B2FF;strokeColor=default;" parent="GBISdUFNZ5l1FWsdLvzd-152" vertex="1">
          <mxGeometry y="10" width="20" height="20" as="geometry" />
        </mxCell>
        <mxCell id="GBISdUFNZ5l1FWsdLvzd-156" value="" style="group" parent="WIyWlLk6GJQsqaUBKTNV-1" vertex="1" connectable="0">
          <mxGeometry x="1120" y="540" width="130" height="80" as="geometry" />
        </mxCell>
        <mxCell id="GBISdUFNZ5l1FWsdLvzd-157" value="&lt;p style=&quot;line-height: 0.9;&quot;&gt;&lt;font style=&quot;line-height: 1.2;&quot;&gt;&lt;font style=&quot;font-size: 10px;&quot;&gt;60h&lt;/font&gt;&lt;br&gt;&lt;/font&gt;&lt;span style=&quot;font-size: 18px;&quot;&gt;&lt;b&gt;EXA806&lt;/b&gt;&lt;/span&gt;&lt;br&gt;&lt;span data-whi-docs=&quot;[[:p &amp;quot;ÁLGEBRA LINEAR I E&amp;quot;]]&quot;&gt;&lt;/span&gt;&amp;nbsp;&lt;span style=&quot;font-size: 10px;&quot;&gt;&lt;span style=&quot;background-color: initial;&quot;&gt;ESTRUTURAS DE&amp;nbsp;&lt;/span&gt;&lt;/span&gt;&lt;span style=&quot;background-color: initial; font-size: 10px;&quot;&gt;DADOS&lt;/span&gt;&lt;/p&gt;" style="rounded=1;whiteSpace=wrap;html=1;fillStyle=auto;gradientColor=none;strokeColor=default;shadow=0;glass=0;sketch=0;" parent="GBISdUFNZ5l1FWsdLvzd-156" vertex="1">
          <mxGeometry y="10" width="120" height="60" as="geometry" />
        </mxCell>
        <mxCell id="GBISdUFNZ5l1FWsdLvzd-158" value="&lt;font style=&quot;font-size: 17px;&quot;&gt;11&lt;/font&gt;" style="ellipse;whiteSpace=wrap;html=1;fontSize=10;" parent="GBISdUFNZ5l1FWsdLvzd-156" vertex="1">
          <mxGeometry x="100" width="30" height="30" as="geometry" />
        </mxCell>
        <mxCell id="GBISdUFNZ5l1FWsdLvzd-312" value="" style="ellipse;whiteSpace=wrap;html=1;pointerEvents=0;fontFamily=Helvetica;fontSize=37;fillColor=#FF9933;strokeColor=default;" parent="GBISdUFNZ5l1FWsdLvzd-156" vertex="1">
          <mxGeometry y="10" width="20" height="20" as="geometry" />
        </mxCell>
        <mxCell id="GBISdUFNZ5l1FWsdLvzd-170" value="" style="group" parent="WIyWlLk6GJQsqaUBKTNV-1" vertex="1" connectable="0">
          <mxGeometry x="1120" y="640" width="130" height="70" as="geometry" />
        </mxCell>
        <mxCell id="GBISdUFNZ5l1FWsdLvzd-171" value="60h&lt;br&gt;&lt;span style=&quot;font-size: 16px;&quot;&gt;&lt;b&gt;EXA805&lt;/b&gt;&lt;/span&gt;&lt;br&gt;&lt;div&gt;&lt;div&gt;ALGORITMOS E&lt;/div&gt;&lt;div&gt;PROGRAMAÇÃO II&lt;/div&gt;&lt;/div&gt;" style="rounded=1;whiteSpace=wrap;html=1;shadow=0;glass=0;sketch=0;fillStyle=auto;fontSize=10;strokeColor=default;gradientColor=none;" parent="GBISdUFNZ5l1FWsdLvzd-170" vertex="1">
          <mxGeometry y="10" width="120" height="60" as="geometry" />
        </mxCell>
        <mxCell id="GBISdUFNZ5l1FWsdLvzd-172" value="&lt;font style=&quot;font-size: 17px;&quot;&gt;9&lt;/font&gt;" style="ellipse;whiteSpace=wrap;html=1;fontSize=10;" parent="GBISdUFNZ5l1FWsdLvzd-170" vertex="1">
          <mxGeometry x="100" width="30" height="30" as="geometry" />
        </mxCell>
        <mxCell id="GBISdUFNZ5l1FWsdLvzd-324" value="" style="ellipse;whiteSpace=wrap;html=1;pointerEvents=0;fontFamily=Helvetica;fontSize=37;fillColor=#FFFF33;strokeColor=default;" parent="GBISdUFNZ5l1FWsdLvzd-170" vertex="1">
          <mxGeometry y="10" width="20" height="20" as="geometry" />
        </mxCell>
        <mxCell id="GBISdUFNZ5l1FWsdLvzd-196" value="" style="group" parent="WIyWlLk6GJQsqaUBKTNV-1" vertex="1" connectable="0">
          <mxGeometry x="170" y="1040" width="130" height="70" as="geometry" />
        </mxCell>
        <mxCell id="GBISdUFNZ5l1FWsdLvzd-93" value="" style="group" parent="GBISdUFNZ5l1FWsdLvzd-196" vertex="1" connectable="0">
          <mxGeometry width="126" height="70" as="geometry" />
        </mxCell>
        <mxCell id="GBISdUFNZ5l1FWsdLvzd-94" value="60h&lt;br&gt;&lt;span style=&quot;font-size: 16px;&quot;&gt;&lt;b&gt;TEC513&lt;/b&gt;&lt;/span&gt;&lt;div&gt;&lt;div&gt;MI-PROCESSA.&lt;/div&gt;&lt;div&gt;DIGITAL DE SINAIS&lt;/div&gt;&lt;/div&gt;" style="rounded=1;whiteSpace=wrap;html=1;shadow=0;glass=0;sketch=0;fillStyle=auto;fontSize=10;strokeColor=default;gradientColor=none;" parent="GBISdUFNZ5l1FWsdLvzd-93" vertex="1">
          <mxGeometry y="10" width="120" height="60" as="geometry" />
        </mxCell>
        <mxCell id="GBISdUFNZ5l1FWsdLvzd-356" value="" style="ellipse;whiteSpace=wrap;html=1;pointerEvents=0;fontFamily=Helvetica;fontSize=37;fillColor=#9933FF;strokeColor=default;" parent="GBISdUFNZ5l1FWsdLvzd-93" vertex="1">
          <mxGeometry y="10" width="20" height="20" as="geometry" />
        </mxCell>
        <mxCell id="GBISdUFNZ5l1FWsdLvzd-101" value="&lt;font style=&quot;font-size: 17px;&quot;&gt;1&lt;/font&gt;" style="ellipse;whiteSpace=wrap;html=1;fontSize=10;" parent="GBISdUFNZ5l1FWsdLvzd-196" vertex="1">
          <mxGeometry x="100" width="30" height="30" as="geometry" />
        </mxCell>
        <mxCell id="GBISdUFNZ5l1FWsdLvzd-197" value="" style="group" parent="WIyWlLk6GJQsqaUBKTNV-1" vertex="1" connectable="0">
          <mxGeometry x="1040" y="440" width="130" height="70" as="geometry" />
        </mxCell>
        <mxCell id="GBISdUFNZ5l1FWsdLvzd-20" value="" style="group" parent="GBISdUFNZ5l1FWsdLvzd-197" vertex="1" connectable="0">
          <mxGeometry width="126" height="70" as="geometry" />
        </mxCell>
        <mxCell id="GBISdUFNZ5l1FWsdLvzd-13" value="60h&lt;br&gt;&lt;span style=&quot;font-size: 16px;&quot;&gt;&lt;b&gt;EXA801&lt;/b&gt;&lt;/span&gt;&lt;div&gt;&lt;div&gt;ALGORITMOS E&lt;/div&gt;&lt;div&gt;PROGRAMAÇÃO I&lt;/div&gt;&lt;/div&gt;" style="rounded=1;whiteSpace=wrap;html=1;shadow=0;glass=0;sketch=0;fillStyle=auto;fontSize=10;strokeColor=default;gradientColor=none;" parent="GBISdUFNZ5l1FWsdLvzd-20" vertex="1">
          <mxGeometry y="10" width="120" height="60" as="geometry" />
        </mxCell>
        <mxCell id="GBISdUFNZ5l1FWsdLvzd-302" value="" style="ellipse;whiteSpace=wrap;html=1;pointerEvents=0;fontFamily=Helvetica;fontSize=37;fillColor=#FF3333;strokeColor=default;" parent="GBISdUFNZ5l1FWsdLvzd-20" vertex="1">
          <mxGeometry y="10" width="20" height="20" as="geometry" />
        </mxCell>
        <mxCell id="GBISdUFNZ5l1FWsdLvzd-14" value="&lt;font style=&quot;font-size: 17px;&quot;&gt;13&lt;/font&gt;" style="ellipse;whiteSpace=wrap;html=1;fontSize=10;" parent="GBISdUFNZ5l1FWsdLvzd-197" vertex="1">
          <mxGeometry x="100" width="30" height="30" as="geometry" />
        </mxCell>
        <mxCell id="GBISdUFNZ5l1FWsdLvzd-198" value="" style="group" parent="WIyWlLk6GJQsqaUBKTNV-1" vertex="1" connectable="0">
          <mxGeometry x="740" y="330" width="130" height="70" as="geometry" />
        </mxCell>
        <mxCell id="GBISdUFNZ5l1FWsdLvzd-39" value="" style="group" parent="GBISdUFNZ5l1FWsdLvzd-198" vertex="1" connectable="0">
          <mxGeometry width="126" height="70" as="geometry" />
        </mxCell>
        <mxCell id="GBISdUFNZ5l1FWsdLvzd-40" value="45h&lt;br&gt;&lt;span style=&quot;font-size: 16px;&quot;&gt;&lt;b&gt;EXA417&lt;/b&gt;&lt;/span&gt;&lt;div&gt;&lt;div&gt;QUÍMICA GERAL E DE&lt;/div&gt;&lt;div&gt;MATERIAIS&lt;/div&gt;&lt;/div&gt;" style="rounded=1;whiteSpace=wrap;html=1;shadow=0;glass=0;sketch=0;fillStyle=auto;fontSize=10;strokeColor=default;gradientColor=none;" parent="GBISdUFNZ5l1FWsdLvzd-39" vertex="1">
          <mxGeometry y="10" width="120" height="60" as="geometry" />
        </mxCell>
        <mxCell id="GBISdUFNZ5l1FWsdLvzd-340" value="" style="ellipse;whiteSpace=wrap;html=1;pointerEvents=0;fontFamily=Helvetica;fontSize=37;fillColor=#33FFFF;strokeColor=default;" parent="GBISdUFNZ5l1FWsdLvzd-39" vertex="1">
          <mxGeometry y="10" width="20" height="20" as="geometry" />
        </mxCell>
        <mxCell id="GBISdUFNZ5l1FWsdLvzd-47" value="&lt;font style=&quot;font-size: 17px;&quot;&gt;1&lt;/font&gt;" style="ellipse;whiteSpace=wrap;html=1;fontSize=10;" parent="GBISdUFNZ5l1FWsdLvzd-198" vertex="1">
          <mxGeometry x="100" width="30" height="30" as="geometry" />
        </mxCell>
        <mxCell id="GBISdUFNZ5l1FWsdLvzd-199" value="" style="group" parent="WIyWlLk6GJQsqaUBKTNV-1" vertex="1" connectable="0">
          <mxGeometry x="50" y="840" width="130" height="70" as="geometry" />
        </mxCell>
        <mxCell id="GBISdUFNZ5l1FWsdLvzd-75" value="" style="group" parent="GBISdUFNZ5l1FWsdLvzd-199" vertex="1" connectable="0">
          <mxGeometry width="126" height="70" as="geometry" />
        </mxCell>
        <mxCell id="GBISdUFNZ5l1FWsdLvzd-76" value="60h&lt;br&gt;&lt;span style=&quot;font-size: 16px;&quot;&gt;&lt;b&gt;TEC217&lt;/b&gt;&lt;/span&gt;&lt;div&gt;&lt;div&gt;MÉTODOS&lt;/div&gt;&lt;div&gt;COMPUTACIONAIS&lt;/div&gt;&lt;/div&gt;" style="rounded=1;whiteSpace=wrap;html=1;shadow=0;glass=0;sketch=0;fillStyle=auto;fontSize=10;strokeColor=default;gradientColor=none;" parent="GBISdUFNZ5l1FWsdLvzd-75" vertex="1">
          <mxGeometry y="10" width="120" height="60" as="geometry" />
        </mxCell>
        <mxCell id="GBISdUFNZ5l1FWsdLvzd-350" value="" style="ellipse;whiteSpace=wrap;html=1;pointerEvents=0;fontFamily=Helvetica;fontSize=37;fillColor=#99CCFF;strokeColor=default;" parent="GBISdUFNZ5l1FWsdLvzd-75" vertex="1">
          <mxGeometry y="10" width="20" height="20" as="geometry" />
        </mxCell>
        <mxCell id="GBISdUFNZ5l1FWsdLvzd-83" value="&lt;font style=&quot;font-size: 17px;&quot;&gt;4&lt;/font&gt;" style="ellipse;whiteSpace=wrap;html=1;fontSize=10;" parent="GBISdUFNZ5l1FWsdLvzd-199" vertex="1">
          <mxGeometry x="100" width="30" height="30" as="geometry" />
        </mxCell>
        <mxCell id="GBISdUFNZ5l1FWsdLvzd-203" value="" style="group" parent="WIyWlLk6GJQsqaUBKTNV-1" vertex="1" connectable="0">
          <mxGeometry x="830" y="640" width="130" height="70" as="geometry" />
        </mxCell>
        <mxCell id="GBISdUFNZ5l1FWsdLvzd-111" value="" style="group" parent="GBISdUFNZ5l1FWsdLvzd-203" vertex="1" connectable="0">
          <mxGeometry width="126" height="70" as="geometry" />
        </mxCell>
        <mxCell id="GBISdUFNZ5l1FWsdLvzd-112" value="60h&lt;br&gt;&lt;span style=&quot;font-size: 16px;&quot;&gt;&lt;b&gt;TEC499&lt;/b&gt;&lt;/span&gt;&lt;br&gt;&lt;div&gt;&lt;div&gt;MI - SISTEMAS&lt;/div&gt;&lt;div&gt;DIGITAIS&lt;/div&gt;&lt;/div&gt;" style="rounded=1;whiteSpace=wrap;html=1;shadow=0;glass=0;sketch=0;fillStyle=auto;fontSize=10;strokeColor=default;gradientColor=none;" parent="GBISdUFNZ5l1FWsdLvzd-111" vertex="1">
          <mxGeometry y="10" width="120" height="60" as="geometry" />
        </mxCell>
        <mxCell id="GBISdUFNZ5l1FWsdLvzd-332" value="" style="ellipse;whiteSpace=wrap;html=1;pointerEvents=0;fontFamily=Helvetica;fontSize=37;fillColor=#99FF33;strokeColor=default;" parent="GBISdUFNZ5l1FWsdLvzd-111" vertex="1">
          <mxGeometry y="10" width="20" height="20" as="geometry" />
        </mxCell>
        <mxCell id="GBISdUFNZ5l1FWsdLvzd-119" value="&lt;font style=&quot;font-size: 17px;&quot;&gt;1&lt;/font&gt;" style="ellipse;whiteSpace=wrap;html=1;fontSize=10;" parent="GBISdUFNZ5l1FWsdLvzd-203" vertex="1">
          <mxGeometry x="100" width="30" height="30" as="geometry" />
        </mxCell>
        <mxCell id="GBISdUFNZ5l1FWsdLvzd-205" value="z" style="group" parent="WIyWlLk6GJQsqaUBKTNV-1" vertex="1" connectable="0">
          <mxGeometry x="320" y="540" width="130" height="70" as="geometry" />
        </mxCell>
        <mxCell id="GBISdUFNZ5l1FWsdLvzd-57" value="" style="group" parent="GBISdUFNZ5l1FWsdLvzd-205" vertex="1" connectable="0">
          <mxGeometry width="126" height="70" as="geometry" />
        </mxCell>
        <mxCell id="GBISdUFNZ5l1FWsdLvzd-58" value="60h&lt;br&gt;&lt;span style=&quot;font-size: 16px;&quot;&gt;&lt;b&gt;EXA704&lt;/b&gt;&lt;/span&gt;&lt;div&gt;&lt;div&gt;CÁLC. DIFERENCIAL E&lt;/div&gt;&lt;div&gt;&amp;nbsp;INT. I E&lt;/div&gt;&lt;/div&gt;" style="rounded=1;whiteSpace=wrap;html=1;shadow=0;glass=0;sketch=0;fillStyle=auto;fontSize=10;strokeColor=default;gradientColor=none;" parent="GBISdUFNZ5l1FWsdLvzd-57" vertex="1">
          <mxGeometry y="10" width="120" height="60" as="geometry" />
        </mxCell>
        <mxCell id="GBISdUFNZ5l1FWsdLvzd-309" value="" style="ellipse;whiteSpace=wrap;html=1;pointerEvents=0;fontFamily=Helvetica;fontSize=37;fillColor=#FF9933;strokeColor=default;" parent="GBISdUFNZ5l1FWsdLvzd-57" vertex="1">
          <mxGeometry y="10" width="20" height="20" as="geometry" />
        </mxCell>
        <mxCell id="GBISdUFNZ5l1FWsdLvzd-65" value="&lt;font style=&quot;font-size: 17px;&quot;&gt;14&lt;/font&gt;" style="ellipse;whiteSpace=wrap;html=1;fontSize=10;" parent="GBISdUFNZ5l1FWsdLvzd-205" vertex="1">
          <mxGeometry x="100" width="30" height="30" as="geometry" />
        </mxCell>
        <mxCell id="GBISdUFNZ5l1FWsdLvzd-206" style="edgeStyle=orthogonalEdgeStyle;rounded=0;orthogonalLoop=1;jettySize=auto;html=1;exitX=0.5;exitY=1;exitDx=0;exitDy=0;fontFamily=Helvetica;fontSize=12;fontColor=default;" parent="WIyWlLk6GJQsqaUBKTNV-1" source="GBISdUFNZ5l1FWsdLvzd-5" edge="1">
          <mxGeometry relative="1" as="geometry">
            <mxPoint x="380.2222222222222" y="550" as="targetPoint" />
          </mxGeometry>
        </mxCell>
        <mxCell id="GBISdUFNZ5l1FWsdLvzd-207" style="edgeStyle=orthogonalEdgeStyle;rounded=0;orthogonalLoop=1;jettySize=auto;html=1;exitX=0.5;exitY=1;exitDx=0;exitDy=0;entryX=0.5;entryY=0;entryDx=0;entryDy=0;fontFamily=Helvetica;fontSize=12;fontColor=default;" parent="WIyWlLk6GJQsqaUBKTNV-1" source="GBISdUFNZ5l1FWsdLvzd-58" target="GBISdUFNZ5l1FWsdLvzd-67" edge="1">
          <mxGeometry relative="1" as="geometry" />
        </mxCell>
        <mxCell id="GBISdUFNZ5l1FWsdLvzd-208" style="edgeStyle=orthogonalEdgeStyle;rounded=0;orthogonalLoop=1;jettySize=auto;html=1;exitX=0.5;exitY=1;exitDx=0;exitDy=0;fontFamily=Helvetica;fontSize=12;fontColor=default;" parent="WIyWlLk6GJQsqaUBKTNV-1" source="GBISdUFNZ5l1FWsdLvzd-58" edge="1">
          <mxGeometry relative="1" as="geometry">
            <mxPoint x="380.2380952380952" y="650" as="targetPoint" />
          </mxGeometry>
        </mxCell>
        <mxCell id="GBISdUFNZ5l1FWsdLvzd-209" style="edgeStyle=orthogonalEdgeStyle;rounded=0;orthogonalLoop=1;jettySize=auto;html=1;exitX=0.5;exitY=1;exitDx=0;exitDy=0;entryX=0.5;entryY=0;entryDx=0;entryDy=0;fontFamily=Helvetica;fontSize=12;fontColor=default;" parent="WIyWlLk6GJQsqaUBKTNV-1" source="GBISdUFNZ5l1FWsdLvzd-58" target="GBISdUFNZ5l1FWsdLvzd-78" edge="1">
          <mxGeometry relative="1" as="geometry" />
        </mxCell>
        <mxCell id="GBISdUFNZ5l1FWsdLvzd-211" style="edgeStyle=orthogonalEdgeStyle;rounded=0;orthogonalLoop=1;jettySize=auto;html=1;exitX=0.5;exitY=1;exitDx=0;exitDy=0;entryX=0.5;entryY=0;entryDx=0;entryDy=0;fontFamily=Helvetica;fontSize=12;fontColor=default;" parent="WIyWlLk6GJQsqaUBKTNV-1" source="GBISdUFNZ5l1FWsdLvzd-67" target="GBISdUFNZ5l1FWsdLvzd-70" edge="1">
          <mxGeometry relative="1" as="geometry" />
        </mxCell>
        <mxCell id="GBISdUFNZ5l1FWsdLvzd-212" style="edgeStyle=orthogonalEdgeStyle;rounded=0;orthogonalLoop=1;jettySize=auto;html=1;exitX=0.5;exitY=1;exitDx=0;exitDy=0;fontFamily=Helvetica;fontSize=12;fontColor=default;" parent="WIyWlLk6GJQsqaUBKTNV-1" source="GBISdUFNZ5l1FWsdLvzd-67" target="GBISdUFNZ5l1FWsdLvzd-73" edge="1">
          <mxGeometry relative="1" as="geometry">
            <Array as="points">
              <mxPoint x="240" y="730" />
              <mxPoint x="360" y="730" />
            </Array>
          </mxGeometry>
        </mxCell>
        <mxCell id="GBISdUFNZ5l1FWsdLvzd-214" style="edgeStyle=orthogonalEdgeStyle;rounded=0;orthogonalLoop=1;jettySize=auto;html=1;exitX=0.5;exitY=1;exitDx=0;exitDy=0;fontFamily=Helvetica;fontSize=12;fontColor=default;" parent="WIyWlLk6GJQsqaUBKTNV-1" source="GBISdUFNZ5l1FWsdLvzd-70" edge="1">
          <mxGeometry relative="1" as="geometry">
            <mxPoint x="120" y="850" as="targetPoint" />
          </mxGeometry>
        </mxCell>
        <mxCell id="GBISdUFNZ5l1FWsdLvzd-216" style="edgeStyle=orthogonalEdgeStyle;rounded=0;orthogonalLoop=1;jettySize=auto;html=1;fontFamily=Helvetica;fontSize=12;fontColor=default;" parent="WIyWlLk6GJQsqaUBKTNV-1" source="GBISdUFNZ5l1FWsdLvzd-0" edge="1">
          <mxGeometry relative="1" as="geometry">
            <mxPoint x="100" y="850" as="targetPoint" />
            <mxPoint x="100" y="520" as="sourcePoint" />
            <Array as="points">
              <mxPoint x="100" y="590" />
              <mxPoint x="100" y="590" />
            </Array>
          </mxGeometry>
        </mxCell>
        <mxCell id="GBISdUFNZ5l1FWsdLvzd-217" style="edgeStyle=orthogonalEdgeStyle;rounded=0;orthogonalLoop=1;jettySize=auto;html=1;exitX=0.5;exitY=1;exitDx=0;exitDy=0;entryX=0.5;entryY=0;entryDx=0;entryDy=0;fontFamily=Helvetica;fontSize=12;fontColor=default;" parent="WIyWlLk6GJQsqaUBKTNV-1" source="GBISdUFNZ5l1FWsdLvzd-73" target="GBISdUFNZ5l1FWsdLvzd-85" edge="1">
          <mxGeometry relative="1" as="geometry" />
        </mxCell>
        <mxCell id="GBISdUFNZ5l1FWsdLvzd-218" style="edgeStyle=orthogonalEdgeStyle;rounded=0;orthogonalLoop=1;jettySize=auto;html=1;exitX=0.5;exitY=1;exitDx=0;exitDy=0;fontFamily=Helvetica;fontSize=12;fontColor=default;" parent="WIyWlLk6GJQsqaUBKTNV-1" source="GBISdUFNZ5l1FWsdLvzd-70" edge="1">
          <mxGeometry relative="1" as="geometry">
            <mxPoint x="360" y="850" as="targetPoint" />
          </mxGeometry>
        </mxCell>
        <mxCell id="GBISdUFNZ5l1FWsdLvzd-219" style="edgeStyle=orthogonalEdgeStyle;rounded=0;orthogonalLoop=1;jettySize=auto;html=1;exitX=0.5;exitY=1;exitDx=0;exitDy=0;entryX=0.5;entryY=0;entryDx=0;entryDy=0;fontFamily=Helvetica;fontSize=12;fontColor=default;" parent="WIyWlLk6GJQsqaUBKTNV-1" source="GBISdUFNZ5l1FWsdLvzd-76" target="GBISdUFNZ5l1FWsdLvzd-99" edge="1">
          <mxGeometry relative="1" as="geometry" />
        </mxCell>
        <mxCell id="GBISdUFNZ5l1FWsdLvzd-222" style="edgeStyle=orthogonalEdgeStyle;rounded=0;orthogonalLoop=1;jettySize=auto;html=1;exitX=0.5;exitY=1;exitDx=0;exitDy=0;entryX=0.5;entryY=0;entryDx=0;entryDy=0;fontFamily=Helvetica;fontSize=12;fontColor=default;" parent="WIyWlLk6GJQsqaUBKTNV-1" source="GBISdUFNZ5l1FWsdLvzd-85" target="GBISdUFNZ5l1FWsdLvzd-88" edge="1">
          <mxGeometry relative="1" as="geometry" />
        </mxCell>
        <mxCell id="GBISdUFNZ5l1FWsdLvzd-224" style="edgeStyle=orthogonalEdgeStyle;rounded=0;orthogonalLoop=1;jettySize=auto;html=1;exitX=0.5;exitY=1;exitDx=0;exitDy=0;fontFamily=Helvetica;fontSize=12;fontColor=default;strokeColor=#FF3333;" parent="WIyWlLk6GJQsqaUBKTNV-1" source="GBISdUFNZ5l1FWsdLvzd-99" target="GBISdUFNZ5l1FWsdLvzd-94" edge="1">
          <mxGeometry relative="1" as="geometry">
            <Array as="points">
              <mxPoint x="80" y="1010" />
              <mxPoint x="80" y="1030" />
              <mxPoint x="230" y="1030" />
            </Array>
          </mxGeometry>
        </mxCell>
        <mxCell id="GBISdUFNZ5l1FWsdLvzd-225" style="edgeStyle=orthogonalEdgeStyle;rounded=0;orthogonalLoop=1;jettySize=auto;html=1;exitX=0.5;exitY=1;exitDx=0;exitDy=0;fontFamily=Helvetica;fontSize=12;fontColor=default;" parent="WIyWlLk6GJQsqaUBKTNV-1" source="GBISdUFNZ5l1FWsdLvzd-85" edge="1">
          <mxGeometry relative="1" as="geometry">
            <mxPoint x="380.33333333333326" y="950" as="targetPoint" />
          </mxGeometry>
        </mxCell>
        <mxCell id="GBISdUFNZ5l1FWsdLvzd-226" style="edgeStyle=orthogonalEdgeStyle;rounded=0;orthogonalLoop=1;jettySize=auto;html=1;exitX=0.5;exitY=1;exitDx=0;exitDy=0;entryX=0.5;entryY=0;entryDx=0;entryDy=0;fontFamily=Helvetica;fontSize=12;fontColor=default;" parent="WIyWlLk6GJQsqaUBKTNV-1" source="GBISdUFNZ5l1FWsdLvzd-96" target="GBISdUFNZ5l1FWsdLvzd-103" edge="1">
          <mxGeometry relative="1" as="geometry" />
        </mxCell>
        <mxCell id="GBISdUFNZ5l1FWsdLvzd-227" style="edgeStyle=orthogonalEdgeStyle;rounded=0;orthogonalLoop=1;jettySize=auto;html=1;exitX=0.5;exitY=1;exitDx=0;exitDy=0;entryX=0.5;entryY=0;entryDx=0;entryDy=0;fontFamily=Helvetica;fontSize=12;fontColor=default;strokeColor=#FF3333;" parent="WIyWlLk6GJQsqaUBKTNV-1" source="GBISdUFNZ5l1FWsdLvzd-99" target="GBISdUFNZ5l1FWsdLvzd-91" edge="1">
          <mxGeometry relative="1" as="geometry">
            <Array as="points">
              <mxPoint x="80" y="1010" />
            </Array>
          </mxGeometry>
        </mxCell>
        <mxCell id="GBISdUFNZ5l1FWsdLvzd-228" style="edgeStyle=orthogonalEdgeStyle;rounded=0;orthogonalLoop=1;jettySize=auto;html=1;exitX=0.5;exitY=1;exitDx=0;exitDy=0;fontFamily=Helvetica;fontSize=12;fontColor=default;" parent="WIyWlLk6GJQsqaUBKTNV-1" source="GBISdUFNZ5l1FWsdLvzd-9" edge="1">
          <mxGeometry relative="1" as="geometry">
            <mxPoint x="400" y="750" as="targetPoint" />
            <Array as="points">
              <mxPoint x="600" y="510" />
              <mxPoint x="600" y="730" />
              <mxPoint x="400" y="730" />
            </Array>
          </mxGeometry>
        </mxCell>
        <mxCell id="GBISdUFNZ5l1FWsdLvzd-229" style="edgeStyle=orthogonalEdgeStyle;rounded=0;orthogonalLoop=1;jettySize=auto;html=1;exitX=0.5;exitY=1;exitDx=0;exitDy=0;entryX=0.75;entryY=0;entryDx=0;entryDy=0;fontFamily=Helvetica;fontSize=12;fontColor=default;" parent="WIyWlLk6GJQsqaUBKTNV-1" source="GBISdUFNZ5l1FWsdLvzd-7" target="GBISdUFNZ5l1FWsdLvzd-85" edge="1">
          <mxGeometry relative="1" as="geometry">
            <Array as="points">
              <mxPoint x="730" y="530" />
              <mxPoint x="620" y="530" />
              <mxPoint x="620" y="830" />
              <mxPoint x="410" y="830" />
            </Array>
          </mxGeometry>
        </mxCell>
        <mxCell id="GBISdUFNZ5l1FWsdLvzd-230" style="edgeStyle=orthogonalEdgeStyle;rounded=0;orthogonalLoop=1;jettySize=auto;html=1;exitX=0.5;exitY=1;exitDx=0;exitDy=0;entryX=0.5;entryY=0;entryDx=0;entryDy=0;fontFamily=Helvetica;fontSize=12;fontColor=default;" parent="WIyWlLk6GJQsqaUBKTNV-1" source="GBISdUFNZ5l1FWsdLvzd-7" target="GBISdUFNZ5l1FWsdLvzd-117" edge="1">
          <mxGeometry relative="1" as="geometry" />
        </mxCell>
        <mxCell id="GBISdUFNZ5l1FWsdLvzd-231" style="edgeStyle=orthogonalEdgeStyle;rounded=0;orthogonalLoop=1;jettySize=auto;html=1;exitX=0.5;exitY=1;exitDx=0;exitDy=0;fontFamily=Helvetica;fontSize=12;fontColor=default;" parent="WIyWlLk6GJQsqaUBKTNV-1" source="GBISdUFNZ5l1FWsdLvzd-7" edge="1">
          <mxGeometry relative="1" as="geometry">
            <mxPoint x="870" y="550" as="targetPoint" />
            <Array as="points">
              <mxPoint x="730" y="530" />
              <mxPoint x="870" y="530" />
            </Array>
          </mxGeometry>
        </mxCell>
        <mxCell id="GBISdUFNZ5l1FWsdLvzd-232" style="edgeStyle=orthogonalEdgeStyle;rounded=0;orthogonalLoop=1;jettySize=auto;html=1;exitX=0.5;exitY=1;exitDx=0;exitDy=0;fontFamily=Helvetica;fontSize=12;fontColor=default;" parent="WIyWlLk6GJQsqaUBKTNV-1" source="GBISdUFNZ5l1FWsdLvzd-11" edge="1">
          <mxGeometry relative="1" as="geometry">
            <mxPoint x="890" y="550" as="targetPoint" />
            <Array as="points">
              <mxPoint x="890" y="550" />
            </Array>
          </mxGeometry>
        </mxCell>
        <mxCell id="GBISdUFNZ5l1FWsdLvzd-233" style="edgeStyle=orthogonalEdgeStyle;rounded=0;orthogonalLoop=1;jettySize=auto;html=1;exitX=0.5;exitY=1;exitDx=0;exitDy=0;fontFamily=Helvetica;fontSize=12;fontColor=default;" parent="WIyWlLk6GJQsqaUBKTNV-1" source="GBISdUFNZ5l1FWsdLvzd-11" target="GBISdUFNZ5l1FWsdLvzd-109" edge="1">
          <mxGeometry relative="1" as="geometry">
            <Array as="points">
              <mxPoint x="890" y="530" />
              <mxPoint x="1000" y="530" />
            </Array>
          </mxGeometry>
        </mxCell>
        <mxCell id="GBISdUFNZ5l1FWsdLvzd-234" style="edgeStyle=orthogonalEdgeStyle;rounded=0;orthogonalLoop=1;jettySize=auto;html=1;exitX=0.5;exitY=1;exitDx=0;exitDy=0;fontFamily=Helvetica;fontSize=12;fontColor=default;" parent="WIyWlLk6GJQsqaUBKTNV-1" source="GBISdUFNZ5l1FWsdLvzd-117" target="GBISdUFNZ5l1FWsdLvzd-112" edge="1">
          <mxGeometry relative="1" as="geometry">
            <Array as="points">
              <mxPoint x="730" y="630" />
              <mxPoint x="870" y="630" />
            </Array>
          </mxGeometry>
        </mxCell>
        <mxCell id="GBISdUFNZ5l1FWsdLvzd-235" style="edgeStyle=orthogonalEdgeStyle;rounded=0;orthogonalLoop=1;jettySize=auto;html=1;exitX=0.5;exitY=1;exitDx=0;exitDy=0;entryX=0.5;entryY=0;entryDx=0;entryDy=0;fontFamily=Helvetica;fontSize=12;fontColor=default;" parent="WIyWlLk6GJQsqaUBKTNV-1" source="GBISdUFNZ5l1FWsdLvzd-117" target="GBISdUFNZ5l1FWsdLvzd-106" edge="1">
          <mxGeometry relative="1" as="geometry" />
        </mxCell>
        <mxCell id="GBISdUFNZ5l1FWsdLvzd-236" style="edgeStyle=orthogonalEdgeStyle;rounded=0;orthogonalLoop=1;jettySize=auto;html=1;exitX=0.5;exitY=1;exitDx=0;exitDy=0;fontFamily=Helvetica;fontSize=12;fontColor=default;strokeColor=#FF3333;" parent="WIyWlLk6GJQsqaUBKTNV-1" source="GBISdUFNZ5l1FWsdLvzd-114" edge="1">
          <mxGeometry relative="1" as="geometry">
            <mxPoint x="890" y="650" as="targetPoint" />
            <Array as="points">
              <mxPoint x="890" y="630" />
              <mxPoint x="890" y="630" />
            </Array>
          </mxGeometry>
        </mxCell>
        <mxCell id="GBISdUFNZ5l1FWsdLvzd-237" style="edgeStyle=orthogonalEdgeStyle;rounded=0;orthogonalLoop=1;jettySize=auto;html=1;exitX=0.5;exitY=1;exitDx=0;exitDy=0;fontFamily=Helvetica;fontSize=12;fontColor=default;strokeColor=#FF3333;" parent="WIyWlLk6GJQsqaUBKTNV-1" source="GBISdUFNZ5l1FWsdLvzd-114" edge="1">
          <mxGeometry relative="1" as="geometry">
            <mxPoint x="760" y="650" as="targetPoint" />
            <Array as="points">
              <mxPoint x="890" y="620" />
              <mxPoint x="760" y="620" />
            </Array>
          </mxGeometry>
        </mxCell>
        <mxCell id="GBISdUFNZ5l1FWsdLvzd-240" style="edgeStyle=orthogonalEdgeStyle;rounded=0;orthogonalLoop=1;jettySize=auto;html=1;exitX=0.5;exitY=1;exitDx=0;exitDy=0;fontFamily=Helvetica;fontSize=12;fontColor=default;strokeColor=#000000;entryX=0.416;entryY=0.008;entryDx=0;entryDy=0;entryPerimeter=0;" parent="WIyWlLk6GJQsqaUBKTNV-1" source="GBISdUFNZ5l1FWsdLvzd-13" target="GBISdUFNZ5l1FWsdLvzd-157" edge="1">
          <mxGeometry relative="1" as="geometry">
            <mxPoint x="1170" y="540" as="targetPoint" />
          </mxGeometry>
        </mxCell>
        <mxCell id="GBISdUFNZ5l1FWsdLvzd-241" style="edgeStyle=orthogonalEdgeStyle;rounded=0;orthogonalLoop=1;jettySize=auto;html=1;exitX=0.5;exitY=1;exitDx=0;exitDy=0;entryX=0.579;entryY=0.008;entryDx=0;entryDy=0;entryPerimeter=0;fontFamily=Helvetica;fontSize=12;fontColor=default;strokeColor=#000000;" parent="WIyWlLk6GJQsqaUBKTNV-1" source="GBISdUFNZ5l1FWsdLvzd-31" target="GBISdUFNZ5l1FWsdLvzd-157" edge="1">
          <mxGeometry relative="1" as="geometry" />
        </mxCell>
        <mxCell id="GBISdUFNZ5l1FWsdLvzd-242" style="edgeStyle=orthogonalEdgeStyle;rounded=0;orthogonalLoop=1;jettySize=auto;html=1;exitX=0.5;exitY=1;exitDx=0;exitDy=0;fontFamily=Helvetica;fontSize=12;fontColor=default;strokeColor=#000000;" parent="WIyWlLk6GJQsqaUBKTNV-1" source="GBISdUFNZ5l1FWsdLvzd-157" target="GBISdUFNZ5l1FWsdLvzd-109" edge="1">
          <mxGeometry relative="1" as="geometry" />
        </mxCell>
        <mxCell id="GBISdUFNZ5l1FWsdLvzd-243" style="edgeStyle=orthogonalEdgeStyle;rounded=0;orthogonalLoop=1;jettySize=auto;html=1;exitX=0.5;exitY=1;exitDx=0;exitDy=0;entryX=0.5;entryY=0;entryDx=0;entryDy=0;fontFamily=Helvetica;fontSize=12;fontColor=default;strokeColor=#000000;" parent="WIyWlLk6GJQsqaUBKTNV-1" source="GBISdUFNZ5l1FWsdLvzd-157" target="GBISdUFNZ5l1FWsdLvzd-171" edge="1">
          <mxGeometry relative="1" as="geometry" />
        </mxCell>
        <mxCell id="GBISdUFNZ5l1FWsdLvzd-244" style="edgeStyle=orthogonalEdgeStyle;rounded=0;orthogonalLoop=1;jettySize=auto;html=1;exitX=0.5;exitY=1;exitDx=0;exitDy=0;fontFamily=Helvetica;fontSize=12;fontColor=default;strokeColor=#000000;" parent="WIyWlLk6GJQsqaUBKTNV-1" source="GBISdUFNZ5l1FWsdLvzd-157" target="GBISdUFNZ5l1FWsdLvzd-135" edge="1">
          <mxGeometry relative="1" as="geometry" />
        </mxCell>
        <mxCell id="GBISdUFNZ5l1FWsdLvzd-245" style="edgeStyle=orthogonalEdgeStyle;rounded=0;orthogonalLoop=1;jettySize=auto;html=1;exitX=0.5;exitY=1;exitDx=0;exitDy=0;fontFamily=Helvetica;fontSize=12;fontColor=default;strokeColor=#FF3333;" parent="WIyWlLk6GJQsqaUBKTNV-1" source="GBISdUFNZ5l1FWsdLvzd-171" target="GBISdUFNZ5l1FWsdLvzd-124" edge="1">
          <mxGeometry relative="1" as="geometry">
            <Array as="points">
              <mxPoint x="1180" y="740" />
              <mxPoint x="727" y="740" />
            </Array>
          </mxGeometry>
        </mxCell>
        <mxCell id="GBISdUFNZ5l1FWsdLvzd-247" style="edgeStyle=orthogonalEdgeStyle;rounded=0;orthogonalLoop=1;jettySize=auto;html=1;exitX=0.5;exitY=1;exitDx=0;exitDy=0;fontFamily=Helvetica;fontSize=12;fontColor=default;strokeColor=#000000;" parent="WIyWlLk6GJQsqaUBKTNV-1" source="GBISdUFNZ5l1FWsdLvzd-124" target="GBISdUFNZ5l1FWsdLvzd-127" edge="1">
          <mxGeometry relative="1" as="geometry" />
        </mxCell>
        <mxCell id="GBISdUFNZ5l1FWsdLvzd-248" style="edgeStyle=orthogonalEdgeStyle;rounded=0;orthogonalLoop=1;jettySize=auto;html=1;exitX=0.5;exitY=1;exitDx=0;exitDy=0;entryX=0.5;entryY=0;entryDx=0;entryDy=0;fontFamily=Helvetica;fontSize=12;fontColor=default;strokeColor=#000000;" parent="WIyWlLk6GJQsqaUBKTNV-1" source="GBISdUFNZ5l1FWsdLvzd-124" target="GBISdUFNZ5l1FWsdLvzd-130" edge="1">
          <mxGeometry relative="1" as="geometry" />
        </mxCell>
        <mxCell id="GBISdUFNZ5l1FWsdLvzd-255" style="edgeStyle=orthogonalEdgeStyle;rounded=0;orthogonalLoop=1;jettySize=auto;html=1;exitX=0.5;exitY=1;exitDx=0;exitDy=0;fontFamily=Helvetica;fontSize=12;fontColor=default;strokeColor=#000000;" parent="WIyWlLk6GJQsqaUBKTNV-1" source="GBISdUFNZ5l1FWsdLvzd-109" target="GBISdUFNZ5l1FWsdLvzd-139" edge="1">
          <mxGeometry relative="1" as="geometry">
            <Array as="points">
              <mxPoint x="1040" y="750" />
              <mxPoint x="820" y="750" />
            </Array>
          </mxGeometry>
        </mxCell>
        <mxCell id="GBISdUFNZ5l1FWsdLvzd-257" style="edgeStyle=orthogonalEdgeStyle;rounded=0;orthogonalLoop=1;jettySize=auto;html=1;exitX=0.5;exitY=1;exitDx=0;exitDy=0;entryX=0.5;entryY=0;entryDx=0;entryDy=0;fontFamily=Helvetica;fontSize=12;fontColor=default;strokeColor=#000000;" parent="WIyWlLk6GJQsqaUBKTNV-1" source="GBISdUFNZ5l1FWsdLvzd-109" target="GBISdUFNZ5l1FWsdLvzd-153" edge="1">
          <mxGeometry relative="1" as="geometry">
            <Array as="points">
              <mxPoint x="1040" y="750" />
              <mxPoint x="950" y="750" />
            </Array>
          </mxGeometry>
        </mxCell>
        <mxCell id="GBISdUFNZ5l1FWsdLvzd-258" style="edgeStyle=orthogonalEdgeStyle;rounded=0;orthogonalLoop=1;jettySize=auto;html=1;exitX=0.5;exitY=1;exitDx=0;exitDy=0;fontFamily=Helvetica;fontSize=12;fontColor=default;strokeColor=#000000;entryX=0.537;entryY=-0.01;entryDx=0;entryDy=0;entryPerimeter=0;" parent="WIyWlLk6GJQsqaUBKTNV-1" source="GBISdUFNZ5l1FWsdLvzd-109" target="GBISdUFNZ5l1FWsdLvzd-150" edge="1">
          <mxGeometry relative="1" as="geometry">
            <Array as="points">
              <mxPoint x="1160" y="750" />
              <mxPoint x="1095" y="750" />
              <mxPoint x="1095" y="809" />
            </Array>
          </mxGeometry>
        </mxCell>
        <mxCell id="GBISdUFNZ5l1FWsdLvzd-259" style="edgeStyle=orthogonalEdgeStyle;rounded=0;orthogonalLoop=1;jettySize=auto;html=1;exitX=0.5;exitY=1;exitDx=0;exitDy=0;fontFamily=Helvetica;fontSize=12;fontColor=default;strokeColor=#FF3333;" parent="WIyWlLk6GJQsqaUBKTNV-1" source="GBISdUFNZ5l1FWsdLvzd-171" edge="1">
          <mxGeometry relative="1" as="geometry">
            <mxPoint x="810" y="811" as="targetPoint" />
            <Array as="points">
              <mxPoint x="1180" y="740" />
              <mxPoint x="810" y="740" />
            </Array>
          </mxGeometry>
        </mxCell>
        <mxCell id="GBISdUFNZ5l1FWsdLvzd-260" style="edgeStyle=orthogonalEdgeStyle;rounded=0;orthogonalLoop=1;jettySize=auto;html=1;exitX=0.5;exitY=1;exitDx=0;exitDy=0;fontFamily=Helvetica;fontSize=12;fontColor=default;strokeColor=#FF3333;" parent="WIyWlLk6GJQsqaUBKTNV-1" source="GBISdUFNZ5l1FWsdLvzd-171" edge="1">
          <mxGeometry relative="1" as="geometry">
            <mxPoint x="930" y="810" as="targetPoint" />
            <Array as="points">
              <mxPoint x="1180" y="740" />
              <mxPoint x="930" y="740" />
            </Array>
          </mxGeometry>
        </mxCell>
        <mxCell id="GBISdUFNZ5l1FWsdLvzd-261" style="edgeStyle=orthogonalEdgeStyle;rounded=0;orthogonalLoop=1;jettySize=auto;html=1;exitX=0.5;exitY=1;exitDx=0;exitDy=0;fontFamily=Helvetica;fontSize=12;fontColor=default;strokeColor=#FF3333;" parent="WIyWlLk6GJQsqaUBKTNV-1" source="GBISdUFNZ5l1FWsdLvzd-171" edge="1">
          <mxGeometry relative="1" as="geometry">
            <mxPoint x="1080" y="810" as="targetPoint" />
            <Array as="points">
              <mxPoint x="1180" y="740" />
              <mxPoint x="1080" y="740" />
            </Array>
          </mxGeometry>
        </mxCell>
        <mxCell id="GBISdUFNZ5l1FWsdLvzd-262" style="edgeStyle=orthogonalEdgeStyle;rounded=0;orthogonalLoop=1;jettySize=auto;html=1;exitX=0.5;exitY=1;exitDx=0;exitDy=0;fontFamily=Helvetica;fontSize=12;fontColor=default;strokeColor=#FF3333;" parent="WIyWlLk6GJQsqaUBKTNV-1" source="GBISdUFNZ5l1FWsdLvzd-171" target="GBISdUFNZ5l1FWsdLvzd-145" edge="1">
          <mxGeometry relative="1" as="geometry">
            <Array as="points">
              <mxPoint x="1180" y="740" />
              <mxPoint x="1290" y="740" />
            </Array>
          </mxGeometry>
        </mxCell>
        <mxCell id="GBISdUFNZ5l1FWsdLvzd-263" style="edgeStyle=orthogonalEdgeStyle;rounded=0;orthogonalLoop=1;jettySize=auto;html=1;exitX=0.5;exitY=1;exitDx=0;exitDy=0;fontFamily=Helvetica;fontSize=12;fontColor=default;strokeColor=#FF3333;" parent="WIyWlLk6GJQsqaUBKTNV-1" source="GBISdUFNZ5l1FWsdLvzd-171" target="GBISdUFNZ5l1FWsdLvzd-142" edge="1">
          <mxGeometry relative="1" as="geometry" />
        </mxCell>
        <mxCell id="GBISdUFNZ5l1FWsdLvzd-264" style="edgeStyle=orthogonalEdgeStyle;rounded=0;orthogonalLoop=1;jettySize=auto;html=1;exitX=0.5;exitY=1;exitDx=0;exitDy=0;entryX=0.644;entryY=-0.034;entryDx=0;entryDy=0;entryPerimeter=0;fontFamily=Helvetica;fontSize=12;fontColor=default;strokeColor=#000000;" parent="WIyWlLk6GJQsqaUBKTNV-1" source="GBISdUFNZ5l1FWsdLvzd-109" target="GBISdUFNZ5l1FWsdLvzd-142" edge="1">
          <mxGeometry relative="1" as="geometry">
            <Array as="points">
              <mxPoint x="1040" y="750" />
              <mxPoint x="1197" y="750" />
            </Array>
          </mxGeometry>
        </mxCell>
        <mxCell id="GBISdUFNZ5l1FWsdLvzd-265" style="edgeStyle=orthogonalEdgeStyle;rounded=0;orthogonalLoop=1;jettySize=auto;html=1;exitX=0.5;exitY=1;exitDx=0;exitDy=0;entryX=0.592;entryY=0.033;entryDx=0;entryDy=0;entryPerimeter=0;fontFamily=Helvetica;fontSize=12;fontColor=default;strokeColor=#000000;" parent="WIyWlLk6GJQsqaUBKTNV-1" source="GBISdUFNZ5l1FWsdLvzd-109" target="GBISdUFNZ5l1FWsdLvzd-145" edge="1">
          <mxGeometry relative="1" as="geometry">
            <Array as="points">
              <mxPoint x="1160" y="750" />
              <mxPoint x="1453" y="750" />
            </Array>
          </mxGeometry>
        </mxCell>
        <mxCell id="GBISdUFNZ5l1FWsdLvzd-267" style="edgeStyle=orthogonalEdgeStyle;rounded=0;orthogonalLoop=1;jettySize=auto;html=1;exitX=0.25;exitY=1;exitDx=0;exitDy=0;fontFamily=Helvetica;fontSize=12;fontColor=default;strokeColor=#000000;entryX=0.75;entryY=0;entryDx=0;entryDy=0;" parent="WIyWlLk6GJQsqaUBKTNV-1" source="GBISdUFNZ5l1FWsdLvzd-117" target="GBISdUFNZ5l1FWsdLvzd-91" edge="1">
          <mxGeometry relative="1" as="geometry">
            <mxPoint x="620" y="1260" as="targetPoint" />
            <Array as="points">
              <mxPoint x="730" y="610" />
              <mxPoint x="730" y="630" />
              <mxPoint x="660" y="630" />
              <mxPoint x="660" y="1120" />
              <mxPoint x="310" y="1120" />
              <mxPoint x="310" y="1020" />
              <mxPoint x="110" y="1020" />
            </Array>
          </mxGeometry>
        </mxCell>
        <mxCell id="GBISdUFNZ5l1FWsdLvzd-268" style="edgeStyle=orthogonalEdgeStyle;rounded=0;orthogonalLoop=1;jettySize=auto;html=1;exitX=0.5;exitY=1;exitDx=0;exitDy=0;entryX=0.75;entryY=0;entryDx=0;entryDy=0;fontFamily=Helvetica;fontSize=12;fontColor=default;strokeColor=#000000;" parent="WIyWlLk6GJQsqaUBKTNV-1" source="GBISdUFNZ5l1FWsdLvzd-117" target="GBISdUFNZ5l1FWsdLvzd-94" edge="1">
          <mxGeometry relative="1" as="geometry">
            <Array as="points">
              <mxPoint x="730" y="630" />
              <mxPoint x="660" y="630" />
              <mxPoint x="660" y="1120" />
              <mxPoint x="310" y="1120" />
              <mxPoint x="310" y="1020" />
              <mxPoint x="260" y="1020" />
            </Array>
          </mxGeometry>
        </mxCell>
        <mxCell id="GBISdUFNZ5l1FWsdLvzd-269" style="edgeStyle=orthogonalEdgeStyle;rounded=0;orthogonalLoop=1;jettySize=auto;html=1;exitX=0.5;exitY=1;exitDx=0;exitDy=0;fontFamily=Helvetica;fontSize=12;fontColor=default;strokeColor=#000000;" parent="WIyWlLk6GJQsqaUBKTNV-1" source="GBISdUFNZ5l1FWsdLvzd-63" edge="1">
          <mxGeometry relative="1" as="geometry">
            <mxPoint x="1443.666666666667" y="400" as="targetPoint" />
          </mxGeometry>
        </mxCell>
        <mxCell id="GBISdUFNZ5l1FWsdLvzd-270" style="edgeStyle=orthogonalEdgeStyle;rounded=0;orthogonalLoop=1;jettySize=auto;html=1;exitX=0.5;exitY=1;exitDx=0;exitDy=0;fontFamily=Helvetica;fontSize=12;fontColor=default;strokeColor=#000000;" parent="WIyWlLk6GJQsqaUBKTNV-1" source="GBISdUFNZ5l1FWsdLvzd-60" target="GBISdUFNZ5l1FWsdLvzd-52" edge="1">
          <mxGeometry relative="1" as="geometry" />
        </mxCell>
        <mxCell id="GBISdUFNZ5l1FWsdLvzd-272" value="" style="rounded=1;whiteSpace=wrap;html=1;pointerEvents=0;fontFamily=Helvetica;fontSize=12;" parent="WIyWlLk6GJQsqaUBKTNV-1" vertex="1">
          <mxGeometry x="50" y="140" width="120" height="60" as="geometry" />
        </mxCell>
        <mxCell id="GBISdUFNZ5l1FWsdLvzd-273" value="&lt;font style=&quot;font-size: 17px;&quot;&gt;Optativas profissionalizante 360 horas&lt;/font&gt;" style="text;html=1;strokeColor=none;fillColor=none;align=left;verticalAlign=middle;whiteSpace=wrap;rounded=0;pointerEvents=0;fontFamily=Helvetica;fontSize=12;fontColor=default;strokeWidth=3;" parent="WIyWlLk6GJQsqaUBKTNV-1" vertex="1">
          <mxGeometry x="55" y="110" width="315" height="30" as="geometry" />
        </mxCell>
        <mxCell id="GBISdUFNZ5l1FWsdLvzd-274" value="" style="rounded=1;whiteSpace=wrap;html=1;pointerEvents=0;fontFamily=Helvetica;fontSize=12;" parent="WIyWlLk6GJQsqaUBKTNV-1" vertex="1">
          <mxGeometry x="200" y="140" width="120" height="60" as="geometry" />
        </mxCell>
        <mxCell id="GBISdUFNZ5l1FWsdLvzd-275" value="" style="rounded=1;whiteSpace=wrap;html=1;pointerEvents=0;fontFamily=Helvetica;fontSize=12;" parent="WIyWlLk6GJQsqaUBKTNV-1" vertex="1">
          <mxGeometry x="350" y="140" width="120" height="60" as="geometry" />
        </mxCell>
        <mxCell id="GBISdUFNZ5l1FWsdLvzd-276" value="" style="rounded=1;whiteSpace=wrap;html=1;pointerEvents=0;fontFamily=Helvetica;fontSize=12;" parent="WIyWlLk6GJQsqaUBKTNV-1" vertex="1">
          <mxGeometry x="50" y="215" width="120" height="60" as="geometry" />
        </mxCell>
        <mxCell id="GBISdUFNZ5l1FWsdLvzd-277" value="" style="rounded=1;whiteSpace=wrap;html=1;pointerEvents=0;fontFamily=Helvetica;fontSize=12;" parent="WIyWlLk6GJQsqaUBKTNV-1" vertex="1">
          <mxGeometry x="200" y="215" width="120" height="60" as="geometry" />
        </mxCell>
        <mxCell id="GBISdUFNZ5l1FWsdLvzd-278" value="" style="rounded=1;whiteSpace=wrap;html=1;pointerEvents=0;fontFamily=Helvetica;fontSize=12;" parent="WIyWlLk6GJQsqaUBKTNV-1" vertex="1">
          <mxGeometry x="350" y="215" width="120" height="60" as="geometry" />
        </mxCell>
        <mxCell id="GBISdUFNZ5l1FWsdLvzd-279" value="&lt;font style=&quot;font-size: 17px;&quot;&gt;Optativas Complementares&lt;br&gt;45 horas&lt;br&gt;&lt;/font&gt;" style="text;html=1;strokeColor=none;fillColor=none;align=left;verticalAlign=middle;whiteSpace=wrap;rounded=0;pointerEvents=0;fontFamily=Helvetica;fontSize=12;fontColor=default;strokeWidth=3;" parent="WIyWlLk6GJQsqaUBKTNV-1" vertex="1">
          <mxGeometry x="50" y="294" width="170" height="30" as="geometry" />
        </mxCell>
        <mxCell id="GBISdUFNZ5l1FWsdLvzd-280" value="" style="rounded=1;whiteSpace=wrap;html=1;pointerEvents=0;fontFamily=Helvetica;fontSize=12;" parent="WIyWlLk6GJQsqaUBKTNV-1" vertex="1">
          <mxGeometry x="50" y="340" width="120" height="60" as="geometry" />
        </mxCell>
        <mxCell id="GBISdUFNZ5l1FWsdLvzd-281" value="" style="rounded=1;whiteSpace=wrap;html=1;pointerEvents=0;fontFamily=Helvetica;fontSize=12;" parent="WIyWlLk6GJQsqaUBKTNV-1" vertex="1">
          <mxGeometry x="200" y="340" width="120" height="60" as="geometry" />
        </mxCell>
        <mxCell id="GBISdUFNZ5l1FWsdLvzd-282" value="&lt;font style=&quot;font-size: 17px;&quot;&gt;Optativas Humanisticas&lt;br&gt;45 horas&lt;br&gt;&lt;/font&gt;" style="text;html=1;strokeColor=none;fillColor=none;align=left;verticalAlign=middle;whiteSpace=wrap;rounded=0;pointerEvents=0;fontFamily=Helvetica;fontSize=12;fontColor=default;strokeWidth=3;" parent="WIyWlLk6GJQsqaUBKTNV-1" vertex="1">
          <mxGeometry x="200" y="294" width="140" height="30" as="geometry" />
        </mxCell>
        <mxCell id="GBISdUFNZ5l1FWsdLvzd-283" value="" style="rounded=1;whiteSpace=wrap;html=1;pointerEvents=0;fontFamily=Helvetica;fontSize=12;" parent="WIyWlLk6GJQsqaUBKTNV-1" vertex="1">
          <mxGeometry x="350" y="340" width="120" height="60" as="geometry" />
        </mxCell>
        <mxCell id="GBISdUFNZ5l1FWsdLvzd-284" value="&lt;font style=&quot;font-size: 17px;&quot;&gt;Eletiva 30 horas&lt;/font&gt;" style="text;html=1;strokeColor=none;fillColor=none;align=left;verticalAlign=middle;whiteSpace=wrap;rounded=0;pointerEvents=0;fontFamily=Helvetica;fontSize=12;fontColor=default;strokeWidth=3;" parent="WIyWlLk6GJQsqaUBKTNV-1" vertex="1">
          <mxGeometry x="350" y="315" width="140" height="30" as="geometry" />
        </mxCell>
        <mxCell id="GBISdUFNZ5l1FWsdLvzd-292" style="edgeStyle=orthogonalEdgeStyle;rounded=0;orthogonalLoop=1;jettySize=auto;html=1;exitX=0.5;exitY=1;exitDx=0;exitDy=0;exitPerimeter=0;entryX=0.5;entryY=0;entryDx=0;entryDy=0;fontFamily=Helvetica;fontSize=9;fontColor=default;strokeColor=#000000;" parent="WIyWlLk6GJQsqaUBKTNV-1" source="GBISdUFNZ5l1FWsdLvzd-289" target="GBISdUFNZ5l1FWsdLvzd-49" edge="1">
          <mxGeometry relative="1" as="geometry" />
        </mxCell>
        <mxCell id="GBISdUFNZ5l1FWsdLvzd-289" value="&lt;span style=&quot;font-size: 9px;&quot; data-slate-fragment=&quot;JTdCJTIyb2JqZWN0JTIyJTNBJTIyZG9jdW1lbnQlMjIlMkMlMjJkYXRhJTIyJTNBJTdCJTdEJTJDJTIybm9kZXMlMjIlM0ElNUIlN0IlMjJvYmplY3QlMjIlM0ElMjJibG9jayUyMiUyQyUyMnR5cGUlMjIlM0ElMjJpdGVtJTIyJTJDJTIyZGF0YSUyMiUzQSU3QiU3RCUyQyUyMm5vZGVzJTIyJTNBJTVCJTdCJTIyb2JqZWN0JTIyJTNBJTIydGV4dCUyMiUyQyUyMmxlYXZlcyUyMiUzQSU1QiU3QiUyMm9iamVjdCUyMiUzQSUyMmxlYWYlMjIlMkMlMjJ0ZXh0JTIyJTNBJTIyNjAlMjUlMjBkYSUyMGNhcmdhJTIwaG9yJUMzJUExcmlhJTIwZW0lNUNyJTVDbk0lQzMlQjNkdWxvcyUyMEludGVncmFkb3JlcyUyMChNSSklMkMlNUNyJTVDbk0lQzMlQjNkdWxvcyUyME9icmlnYXQlQzMlQjNyaW9zJTIwKE1PKSUyMGUlNUNyJTVDbkRpc2NpcGxpbmFzJTIwT2JyaWdhdCVDMyVCM3JpYXMlMjAoRE8pLiUyMCUyMiUyQyUyMm1hcmtzJTIyJTNBJTVCJTVEJTdEJTVEJTdEJTVEJTdEJTVEJTdE&quot;&gt;&lt;font style=&quot;font-size: 9px; line-height: 0.9;&quot;&gt;60% da carga horária em&lt;br&gt;Módulos Integradores (MI),&lt;br&gt;Módulos Obrigatórios (MO) e&lt;br&gt;Disciplinas Obrigatórias (DO). &lt;/font&gt;&lt;/span&gt;" style="whiteSpace=wrap;html=1;shape=mxgraph.basic.document;pointerEvents=0;fontFamily=Helvetica;fontSize=17;fillColor=#f8cecc;strokeColor=#b85450;" parent="WIyWlLk6GJQsqaUBKTNV-1" vertex="1">
          <mxGeometry x="1244" y="170" width="120" height="100" as="geometry" />
        </mxCell>
        <mxCell id="GBISdUFNZ5l1FWsdLvzd-294" style="edgeStyle=orthogonalEdgeStyle;rounded=0;orthogonalLoop=1;jettySize=auto;html=1;exitX=0.5;exitY=1;exitDx=0;exitDy=0;exitPerimeter=0;entryX=0.5;entryY=0;entryDx=0;entryDy=0;fontFamily=Helvetica;fontSize=9;fontColor=default;strokeColor=#000000;" parent="WIyWlLk6GJQsqaUBKTNV-1" source="GBISdUFNZ5l1FWsdLvzd-293" target="GBISdUFNZ5l1FWsdLvzd-63" edge="1">
          <mxGeometry relative="1" as="geometry" />
        </mxCell>
        <mxCell id="GBISdUFNZ5l1FWsdLvzd-293" value="&lt;font style=&quot;line-height: 0.7; font-size: 9px;&quot;&gt;70% da carga horária em Módulos Integradores (MI), Módulos Obrigatórios (MO) e Disciplinas Obrigatórias (DO)&lt;/font&gt;" style="whiteSpace=wrap;html=1;shape=mxgraph.basic.document;pointerEvents=0;fontFamily=Helvetica;fontSize=17;fillColor=#f8cecc;strokeColor=#b85450;" parent="WIyWlLk6GJQsqaUBKTNV-1" vertex="1">
          <mxGeometry x="1384" y="170" width="120" height="100" as="geometry" />
        </mxCell>
        <mxCell id="GBISdUFNZ5l1FWsdLvzd-296" style="edgeStyle=orthogonalEdgeStyle;rounded=0;orthogonalLoop=1;jettySize=auto;html=1;exitX=0.5;exitY=1;exitDx=0;exitDy=0;exitPerimeter=0;entryX=0.5;entryY=0;entryDx=0;entryDy=0;fontFamily=Helvetica;fontSize=9;fontColor=default;strokeColor=#000000;" parent="WIyWlLk6GJQsqaUBKTNV-1" source="GBISdUFNZ5l1FWsdLvzd-295" target="GBISdUFNZ5l1FWsdLvzd-55" edge="1">
          <mxGeometry relative="1" as="geometry" />
        </mxCell>
        <mxCell id="GBISdUFNZ5l1FWsdLvzd-295" value="&lt;span style=&quot;&quot; data-slate-fragment=&quot;JTdCJTIyb2JqZWN0JTIyJTNBJTIyZG9jdW1lbnQlMjIlMkMlMjJkYXRhJTIyJTNBJTdCJTdEJTJDJTIybm9kZXMlMjIlM0ElNUIlN0IlMjJvYmplY3QlMjIlM0ElMjJibG9jayUyMiUyQyUyMnR5cGUlMjIlM0ElMjJpdGVtJTIyJTJDJTIyZGF0YSUyMiUzQSU3QiU3RCUyQyUyMm5vZGVzJTIyJTNBJTVCJTdCJTIyb2JqZWN0JTIyJTNBJTIydGV4dCUyMiUyQyUyMmxlYXZlcyUyMiUzQSU1QiU3QiUyMm9iamVjdCUyMiUzQSUyMmxlYWYlMjIlMkMlMjJ0ZXh0JTIyJTNBJTIyNDAlMjUlMjBkYSUyMGNhcmdhJTIwaG9yJUMzJUExcmlhJTIwdG90YWwlMjBkbyUyMGN1cnNvJTIyJTJDJTIybWFya3MlMjIlM0ElNUIlNUQlN0QlNUQlN0QlNUQlN0QlNUQlN0Q=&quot;&gt;&lt;font style=&quot;font-size: 10px;&quot;&gt;40% da carga horária total do curso&lt;/font&gt;&lt;/span&gt;" style="whiteSpace=wrap;html=1;shape=mxgraph.basic.document;pointerEvents=0;fontFamily=Helvetica;fontSize=17;fillColor=#f8cecc;strokeColor=#b85450;" parent="WIyWlLk6GJQsqaUBKTNV-1" vertex="1">
          <mxGeometry x="1524" y="170" width="120" height="100" as="geometry" />
        </mxCell>
        <mxCell id="GBISdUFNZ5l1FWsdLvzd-297" value="&lt;font style=&quot;font-size: 21px;&quot;&gt;&lt;br&gt;Curso de Engenharia de Computação UEFS&lt;br&gt;Resolução 124/2020&lt;/font&gt;" style="text;html=1;align=center;verticalAlign=middle;resizable=0;points=[];autosize=1;strokeColor=none;fillColor=none;fontSize=10;fontFamily=Helvetica;fontColor=#000000;" parent="WIyWlLk6GJQsqaUBKTNV-1" vertex="1">
          <mxGeometry x="585" y="135" width="440" height="90" as="geometry" />
        </mxCell>
        <mxCell id="GBISdUFNZ5l1FWsdLvzd-298" value="&lt;font style=&quot;font-size: 37px;&quot;&gt;&lt;b&gt;Árvore de dependências&lt;/b&gt;&lt;/font&gt;" style="text;html=1;align=center;verticalAlign=middle;resizable=0;points=[];autosize=1;strokeColor=none;fillColor=none;fontSize=21;fontFamily=Helvetica;fontColor=#000000;" parent="WIyWlLk6GJQsqaUBKTNV-1" vertex="1">
          <mxGeometry x="580" y="115" width="450" height="60" as="geometry" />
        </mxCell>
        <mxCell id="GBISdUFNZ5l1FWsdLvzd-366" value="" style="ellipse;whiteSpace=wrap;html=1;pointerEvents=0;fontFamily=Helvetica;fontSize=37;fillColor=#FF3333;strokeColor=default;" parent="WIyWlLk6GJQsqaUBKTNV-1" vertex="1">
          <mxGeometry x="1570" y="700" width="20" height="20" as="geometry" />
        </mxCell>
        <mxCell id="GBISdUFNZ5l1FWsdLvzd-370" value="" style="ellipse;whiteSpace=wrap;html=1;pointerEvents=0;fontFamily=Helvetica;fontSize=37;fillColor=#FF9933;strokeColor=default;" parent="WIyWlLk6GJQsqaUBKTNV-1" vertex="1">
          <mxGeometry x="1570" y="730" width="20" height="20" as="geometry" />
        </mxCell>
        <mxCell id="GBISdUFNZ5l1FWsdLvzd-371" value="" style="ellipse;whiteSpace=wrap;html=1;pointerEvents=0;fontFamily=Helvetica;fontSize=37;fillColor=#FFFF33;strokeColor=default;" parent="WIyWlLk6GJQsqaUBKTNV-1" vertex="1">
          <mxGeometry x="1570" y="760" width="20" height="20" as="geometry" />
        </mxCell>
        <mxCell id="GBISdUFNZ5l1FWsdLvzd-372" value="" style="ellipse;whiteSpace=wrap;html=1;pointerEvents=0;fontFamily=Helvetica;fontSize=37;fillColor=#99FF33;strokeColor=default;" parent="WIyWlLk6GJQsqaUBKTNV-1" vertex="1">
          <mxGeometry x="1570" y="790" width="20" height="20" as="geometry" />
        </mxCell>
        <mxCell id="GBISdUFNZ5l1FWsdLvzd-373" value="" style="ellipse;whiteSpace=wrap;html=1;pointerEvents=0;fontFamily=Helvetica;fontSize=37;fillColor=#66B2FF;strokeColor=default;" parent="WIyWlLk6GJQsqaUBKTNV-1" vertex="1">
          <mxGeometry x="1570" y="850" width="20" height="20" as="geometry" />
        </mxCell>
        <mxCell id="GBISdUFNZ5l1FWsdLvzd-375" value="" style="ellipse;whiteSpace=wrap;html=1;pointerEvents=0;fontFamily=Helvetica;fontSize=37;fillColor=#3333FF;strokeColor=default;" parent="WIyWlLk6GJQsqaUBKTNV-1" vertex="1">
          <mxGeometry x="1570" y="880" width="20" height="20" as="geometry" />
        </mxCell>
        <mxCell id="GBISdUFNZ5l1FWsdLvzd-376" value="" style="ellipse;whiteSpace=wrap;html=1;pointerEvents=0;fontFamily=Helvetica;fontSize=37;fillColor=#9933FF;strokeColor=default;" parent="WIyWlLk6GJQsqaUBKTNV-1" vertex="1">
          <mxGeometry x="1570" y="910" width="20" height="20" as="geometry" />
        </mxCell>
        <mxCell id="GBISdUFNZ5l1FWsdLvzd-377" value="" style="ellipse;whiteSpace=wrap;html=1;pointerEvents=0;fontFamily=Helvetica;fontSize=37;fillColor=#FF33FF;strokeColor=default;" parent="WIyWlLk6GJQsqaUBKTNV-1" vertex="1">
          <mxGeometry x="1570" y="940" width="20" height="20" as="geometry" />
        </mxCell>
        <mxCell id="GBISdUFNZ5l1FWsdLvzd-378" value="" style="ellipse;whiteSpace=wrap;html=1;pointerEvents=0;fontFamily=Helvetica;fontSize=37;fillColor=#FF99CC;strokeColor=default;" parent="WIyWlLk6GJQsqaUBKTNV-1" vertex="1">
          <mxGeometry x="1570" y="970" width="20" height="20" as="geometry" />
        </mxCell>
        <mxCell id="GBISdUFNZ5l1FWsdLvzd-382" value="&lt;font style=&quot;font-size: 15px;&quot;&gt;1° semestre&lt;/font&gt;" style="text;html=1;strokeColor=none;fillColor=none;align=left;verticalAlign=middle;whiteSpace=wrap;rounded=0;pointerEvents=0;fontFamily=Helvetica;fontSize=24;fontColor=#000000;" parent="WIyWlLk6GJQsqaUBKTNV-1" vertex="1">
          <mxGeometry x="1600" y="700" width="130" height="20" as="geometry" />
        </mxCell>
        <mxCell id="GBISdUFNZ5l1FWsdLvzd-383" value="&lt;font style=&quot;font-size: 15px;&quot;&gt;2°&amp;nbsp;semestre&lt;/font&gt;" style="text;html=1;strokeColor=none;fillColor=none;align=left;verticalAlign=middle;whiteSpace=wrap;rounded=0;pointerEvents=0;fontFamily=Helvetica;fontSize=24;fontColor=#000000;" parent="WIyWlLk6GJQsqaUBKTNV-1" vertex="1">
          <mxGeometry x="1600" y="730" width="130" height="20" as="geometry" />
        </mxCell>
        <mxCell id="GBISdUFNZ5l1FWsdLvzd-384" value="&lt;font style=&quot;font-size: 15px;&quot;&gt;3°&amp;nbsp;semestre&lt;/font&gt;" style="text;html=1;strokeColor=none;fillColor=none;align=left;verticalAlign=middle;whiteSpace=wrap;rounded=0;pointerEvents=0;fontFamily=Helvetica;fontSize=24;fontColor=#000000;" parent="WIyWlLk6GJQsqaUBKTNV-1" vertex="1">
          <mxGeometry x="1600" y="760" width="130" height="20" as="geometry" />
        </mxCell>
        <mxCell id="GBISdUFNZ5l1FWsdLvzd-385" value="&lt;font style=&quot;font-size: 15px;&quot;&gt;4°&amp;nbsp;semestre&lt;/font&gt;" style="text;html=1;strokeColor=none;fillColor=none;align=left;verticalAlign=middle;whiteSpace=wrap;rounded=0;pointerEvents=0;fontFamily=Helvetica;fontSize=24;fontColor=#000000;" parent="WIyWlLk6GJQsqaUBKTNV-1" vertex="1">
          <mxGeometry x="1600" y="790" width="130" height="20" as="geometry" />
        </mxCell>
        <mxCell id="GBISdUFNZ5l1FWsdLvzd-386" value="&lt;font style=&quot;font-size: 15px;&quot;&gt;5° semestre&lt;/font&gt;" style="text;html=1;strokeColor=none;fillColor=none;align=left;verticalAlign=middle;whiteSpace=wrap;rounded=0;pointerEvents=0;fontFamily=Helvetica;fontSize=24;fontColor=#000000;" parent="WIyWlLk6GJQsqaUBKTNV-1" vertex="1">
          <mxGeometry x="1600" y="820" width="130" height="20" as="geometry" />
        </mxCell>
        <mxCell id="GBISdUFNZ5l1FWsdLvzd-387" value="&lt;font style=&quot;font-size: 15px;&quot;&gt;6° semestre&lt;/font&gt;" style="text;html=1;strokeColor=none;fillColor=none;align=left;verticalAlign=middle;whiteSpace=wrap;rounded=0;pointerEvents=0;fontFamily=Helvetica;fontSize=24;fontColor=#000000;" parent="WIyWlLk6GJQsqaUBKTNV-1" vertex="1">
          <mxGeometry x="1600" y="850" width="130" height="20" as="geometry" />
        </mxCell>
        <mxCell id="GBISdUFNZ5l1FWsdLvzd-388" value="&lt;font style=&quot;font-size: 15px;&quot;&gt;7° semestre&lt;/font&gt;" style="text;html=1;strokeColor=none;fillColor=none;align=left;verticalAlign=middle;whiteSpace=wrap;rounded=0;pointerEvents=0;fontFamily=Helvetica;fontSize=24;fontColor=#000000;" parent="WIyWlLk6GJQsqaUBKTNV-1" vertex="1">
          <mxGeometry x="1600" y="880" width="130" height="20" as="geometry" />
        </mxCell>
        <mxCell id="GBISdUFNZ5l1FWsdLvzd-389" value="&lt;font style=&quot;font-size: 15px;&quot;&gt;8° semestre&lt;/font&gt;" style="text;html=1;strokeColor=none;fillColor=none;align=left;verticalAlign=middle;whiteSpace=wrap;rounded=0;pointerEvents=0;fontFamily=Helvetica;fontSize=24;fontColor=#000000;" parent="WIyWlLk6GJQsqaUBKTNV-1" vertex="1">
          <mxGeometry x="1600" y="910" width="130" height="20" as="geometry" />
        </mxCell>
        <mxCell id="GBISdUFNZ5l1FWsdLvzd-390" value="&lt;font style=&quot;font-size: 15px;&quot;&gt;9° semestre&lt;/font&gt;" style="text;html=1;strokeColor=none;fillColor=none;align=left;verticalAlign=middle;whiteSpace=wrap;rounded=0;pointerEvents=0;fontFamily=Helvetica;fontSize=24;fontColor=#000000;" parent="WIyWlLk6GJQsqaUBKTNV-1" vertex="1">
          <mxGeometry x="1600" y="940" width="130" height="20" as="geometry" />
        </mxCell>
        <mxCell id="GBISdUFNZ5l1FWsdLvzd-393" value="" style="ellipse;whiteSpace=wrap;html=1;pointerEvents=0;fontFamily=Helvetica;fontSize=37;fillColor=#33FFFF;strokeColor=default;" parent="WIyWlLk6GJQsqaUBKTNV-1" vertex="1">
          <mxGeometry x="1570" y="820" width="20" height="20" as="geometry" />
        </mxCell>
        <mxCell id="GBISdUFNZ5l1FWsdLvzd-394" value="&lt;font style=&quot;font-size: 15px;&quot;&gt;10° semestre&lt;/font&gt;" style="text;html=1;strokeColor=none;fillColor=none;align=left;verticalAlign=middle;whiteSpace=wrap;rounded=0;pointerEvents=0;fontFamily=Helvetica;fontSize=24;fontColor=#000000;" parent="WIyWlLk6GJQsqaUBKTNV-1" vertex="1">
          <mxGeometry x="1600" y="970" width="130" height="20" as="geometry" />
        </mxCell>
        <mxCell id="kCnR7YrVCKxYUpte7CN9-0" value="" style="group" vertex="1" connectable="0" parent="WIyWlLk6GJQsqaUBKTNV-1">
          <mxGeometry x="1410" y="890" width="130" height="70" as="geometry" />
        </mxCell>
        <mxCell id="kCnR7YrVCKxYUpte7CN9-1" value="60h&lt;br&gt;&lt;span style=&quot;font-size: 16px;&quot;&gt;&lt;b&gt;EXA813&lt;/b&gt;&lt;/span&gt;&lt;br&gt;&lt;div&gt;ANÁLISE E PROJETO DE ALGORITMOS&lt;/div&gt;" style="rounded=1;whiteSpace=wrap;html=1;shadow=0;glass=0;sketch=0;fillStyle=auto;fontSize=10;strokeColor=default;gradientColor=none;" vertex="1" parent="kCnR7YrVCKxYUpte7CN9-0">
          <mxGeometry y="10" width="120" height="60" as="geometry" />
        </mxCell>
        <mxCell id="kCnR7YrVCKxYUpte7CN9-2" value="&lt;font style=&quot;font-size: 17px;&quot;&gt;1&lt;/font&gt;" style="ellipse;whiteSpace=wrap;html=1;fontSize=10;" vertex="1" parent="kCnR7YrVCKxYUpte7CN9-0">
          <mxGeometry x="100" width="30" height="30" as="geometry" />
        </mxCell>
        <mxCell id="kCnR7YrVCKxYUpte7CN9-3" value="" style="ellipse;whiteSpace=wrap;html=1;pointerEvents=0;fontFamily=Helvetica;fontSize=37;fillColor=#FF33FF;strokeColor=default;" vertex="1" parent="kCnR7YrVCKxYUpte7CN9-0">
          <mxGeometry y="10" width="20" height="20" as="geometry" />
        </mxCell>
        <mxCell id="kCnR7YrVCKxYUpte7CN9-4" style="edgeStyle=orthogonalEdgeStyle;rounded=0;orthogonalLoop=1;jettySize=auto;html=1;exitX=0.5;exitY=1;exitDx=0;exitDy=0;entryX=0.5;entryY=0;entryDx=0;entryDy=0;fontSize=12;strokeColor=#000000;" edge="1" parent="WIyWlLk6GJQsqaUBKTNV-1" source="GBISdUFNZ5l1FWsdLvzd-135" target="kCnR7YrVCKxYUpte7CN9-1">
          <mxGeometry relative="1" as="geometry">
            <Array as="points">
              <mxPoint x="1320" y="730" />
              <mxPoint x="1470" y="730" />
            </Array>
          </mxGeometry>
        </mxCell>
        <mxCell id="kCnR7YrVCKxYUpte7CN9-5" style="edgeStyle=orthogonalEdgeStyle;rounded=0;orthogonalLoop=1;jettySize=auto;html=1;exitX=0.5;exitY=1;exitDx=0;exitDy=0;entryX=0.417;entryY=0.017;entryDx=0;entryDy=0;entryPerimeter=0;fontSize=12;strokeColor=#FF0000;" edge="1" parent="WIyWlLk6GJQsqaUBKTNV-1" source="GBISdUFNZ5l1FWsdLvzd-67" target="kCnR7YrVCKxYUpte7CN9-1">
          <mxGeometry relative="1" as="geometry">
            <Array as="points">
              <mxPoint x="240" y="720" />
              <mxPoint x="1460" y="720" />
            </Array>
          </mxGeometry>
        </mxCell>
      </root>
    </mxGraphModel>
  </diagram>
</mxfile>
